<svg width="570" height="397" viewBox="0 0 570 397" fill="none" xmlns="http://www.w3.org/2000/svg">
<path d="M480.917 66.0752C481.508 70.0658 480.901 74.1419 479.173 77.7873C477.446 81.4327 474.675 84.4835 471.213 86.5534C467.75 88.6233 463.751 89.6192 459.722 89.415C455.693 89.2108 451.816 87.8157 448.58 85.4063C445.345 82.9969 442.897 79.6817 441.547 75.8803C440.196 72.0788 440.005 67.9623 440.996 64.0518C441.986 60.1413 444.115 56.6128 447.113 53.913C450.11 51.2131 453.841 49.4635 457.834 48.8856C463.173 48.1126 468.601 49.488 472.928 52.7101C477.255 55.9322 480.128 60.7384 480.917 66.0752V66.0752Z" fill="#F5F5F5"/>
<path d="M476.128 66.7719C476.578 69.8125 476.116 72.9184 474.8 75.6963C473.485 78.4742 471.374 80.7993 468.737 82.3773C466.099 83.9553 463.052 84.7153 459.982 84.561C456.912 84.4067 453.957 83.3451 451.491 81.5106C449.025 79.676 447.158 77.151 446.128 74.2552C445.097 71.3594 444.949 68.2229 445.702 65.2427C446.454 62.2626 448.074 59.5728 450.357 57.5138C452.639 55.4547 455.481 54.1191 458.522 53.6759C462.594 53.0781 466.736 54.122 470.037 56.5779C473.339 59.0339 475.53 62.7007 476.128 66.7719V66.7719Z" fill="#EBEBEB"/>
<path d="M476.051 66.2878C475.764 65.7181 475.537 65.1205 475.372 64.5043C474.401 61.7854 472.71 59.3812 470.48 57.5487C469.443 56.7079 468.301 56.0056 467.082 55.4594C466.429 55.1557 465.753 54.903 465.061 54.7035C464.34 54.494 463.605 54.3379 462.861 54.2364C462.093 54.1352 461.318 54.0898 460.543 54.1005C459.743 54.1255 458.946 54.2049 458.156 54.3383C457.37 54.4812 456.595 54.6827 455.838 54.9413C455.1 55.1905 454.384 55.5001 453.698 55.8671C453.033 56.2162 452.397 56.6166 451.795 57.0646C451.213 57.4854 450.665 57.9511 450.156 58.4574C449.203 59.3939 448.375 60.4502 447.693 61.5998C447.1 62.6059 446.619 63.6738 446.258 64.7846C445.745 66.4083 445.484 68.1011 445.485 69.8039C445.552 70.4391 445.552 71.0796 445.485 71.7148C445.204 71.1254 445.053 70.4823 445.043 69.8294C444.858 68.0574 445.002 66.2664 445.468 64.5468C446.172 61.9631 447.522 59.6013 449.392 57.6845C449.919 57.1333 450.487 56.6223 451.09 56.1558C452.401 55.153 453.863 54.3646 455.422 53.8203C456.238 53.5447 457.072 53.3261 457.919 53.1663C458.761 53.0233 459.612 52.941 460.466 52.92C461.305 52.9075 462.143 52.9643 462.972 53.0899C463.775 53.2009 464.568 53.3799 465.341 53.6249C466.082 53.8503 466.803 54.1343 467.499 54.4742C468.788 55.087 469.988 55.8727 471.066 56.8098C472.014 57.622 472.863 58.5427 473.596 59.553C474.629 61.0069 475.384 62.6396 475.822 64.3684C476.033 64.9847 476.111 65.639 476.051 66.2878V66.2878Z" fill="#E0E0E0"/>
<path d="M463.83 77.9138L464.254 80.589L461.868 80.9712L461.452 78.3724C459.32 78.6329 457.157 78.2917 455.209 77.3872L456.059 74.2703C457.579 75.0054 459.265 75.3332 460.951 75.2215L460.314 71.2384C457.562 71.0175 454.471 70.6099 453.918 67.1957C453.519 64.6479 455.006 62.2104 458.7 61.1743L458.284 58.5245L460.662 58.1423L461.078 60.7496C462.806 60.5655 464.554 60.7984 466.174 61.4291L465.452 64.546C464.224 64.0795 462.917 63.8573 461.605 63.892L462.25 67.9516C465.002 68.1469 468.051 68.5631 468.586 71.9263C468.968 74.4317 467.499 76.8691 463.83 77.9138ZM459.753 67.7223L459.21 64.3251C457.995 64.8092 457.604 65.5821 457.732 66.3719C457.859 67.1618 458.649 67.5949 459.753 67.7563V67.7223ZM464.772 72.818C464.645 71.9687 463.881 71.6375 462.794 71.4422L463.32 74.7374C464.467 74.3128 464.9 73.6164 464.772 72.852V72.818Z" fill="#E0E0E0"/>
<path d="M417.424 69.685C418.448 76.6096 417.393 83.6821 414.395 90.0071C411.396 96.3322 406.589 101.625 400.581 105.217C394.573 108.808 387.634 110.537 380.643 110.183C373.652 109.829 366.924 107.409 361.309 103.229C355.694 99.049 351.446 93.2973 349.101 86.7018C346.757 80.1063 346.422 72.9635 348.139 66.1777C349.857 59.3918 353.548 53.2679 358.748 48.5812C363.947 43.8945 370.42 40.8557 377.347 39.8495C386.618 38.4914 396.049 40.8718 403.565 46.467C411.081 52.0622 416.066 60.414 417.424 69.685V69.685Z" fill="#F5F5F5"/>
<path d="M409.093 70.8911C409.871 76.1666 409.068 81.5547 406.784 86.3735C404.5 91.1923 400.837 95.2253 396.261 97.9624C391.684 100.699 386.398 102.018 381.072 101.75C375.746 101.482 370.619 99.6408 366.34 96.4587C362.061 93.2766 358.821 88.8967 357.032 83.8732C355.242 78.8496 354.983 73.4082 356.287 68.2373C357.59 63.0664 360.399 58.3983 364.356 54.8237C368.313 51.2491 373.242 48.9285 378.518 48.1556C382.019 47.6383 385.587 47.8162 389.019 48.6792C392.451 49.5421 395.679 51.0732 398.519 53.1848C401.359 55.2964 403.754 57.9471 405.568 60.9853C407.383 64.0235 408.58 67.3896 409.093 70.8911Z" fill="#EBEBEB"/>
<path d="M408.964 70.0585C408.803 70.0585 408.522 68.9374 407.792 66.9501C406.783 64.1707 405.35 61.5638 403.545 59.2215C402.293 57.6268 400.869 56.1743 399.299 54.8902C397.5 53.4306 395.522 52.2063 393.413 51.2467C392.275 50.7276 391.1 50.2932 389.897 49.9473C388.65 49.5655 387.375 49.2816 386.084 49.098C384.747 48.9158 383.399 48.8363 382.05 48.8602C379.267 48.9049 376.508 49.3952 373.88 50.3125C372.609 50.7629 371.377 51.3139 370.194 51.9601C369.042 52.5667 367.938 53.2594 366.89 54.0324C365.883 54.7741 364.93 55.5858 364.037 56.4613C362.393 58.0895 360.966 59.9219 359.79 61.9138C358.763 63.6613 357.929 65.5151 357.302 67.4426C356.41 70.2641 355.958 73.2059 355.96 76.1648C355.96 78.2711 356.096 79.4516 355.96 79.4771C355.824 79.5025 355.442 78.3645 355.187 76.2073C354.862 73.1277 355.112 70.0144 355.926 67.0265C357.133 62.5458 359.473 58.4512 362.72 55.1364C363.651 54.1672 364.659 53.2753 365.735 52.4697C366.834 51.6293 367.995 50.8741 369.209 50.2106C370.488 49.5123 371.823 48.9214 373.2 48.444C374.617 47.9545 376.067 47.5713 377.54 47.2975C379.017 47.0461 380.51 46.907 382.008 46.8814C383.462 46.8582 384.916 46.952 386.356 47.1616C387.745 47.3618 389.117 47.6713 390.458 48.0873C391.741 48.4805 392.993 48.9688 394.203 49.5481C396.443 50.6161 398.529 51.9817 400.403 53.6077C402.019 55.0237 403.461 56.6259 404.701 58.3807C406.497 60.9019 407.808 63.736 408.565 66.7377C409.074 68.8355 409.083 70.0415 408.964 70.0585Z" fill="#E0E0E0"/>
<path d="M387.749 90.2453L388.488 94.8825L384.352 95.5364L383.63 91.0267C379.494 91.4343 375.35 90.7804 372.793 89.3281L374.254 83.9096C376.891 85.2002 379.817 85.7854 382.747 85.6082L381.634 78.695C376.861 78.3128 371.485 77.5994 370.534 71.6799C369.838 67.2891 372.42 63.0171 378.84 61.2251L378.101 56.6305L382.246 55.968L382.968 60.4778C385.955 60.1686 388.974 60.5732 391.775 61.6583L390.577 67.0852C388.45 66.2646 386.181 65.8748 383.902 65.9387L385.023 72.9793C389.796 73.319 395.087 74.0409 396.021 79.8755C396.667 84.1814 394.119 88.4279 387.749 90.2453ZM380.675 72.6056L379.74 66.7285C377.626 67.5778 376.946 68.9197 377.193 70.2871C377.439 71.6544 378.764 72.2914 380.675 72.6056V72.6056ZM389.397 81.4467C389.168 79.9944 387.834 79.3999 385.957 79.0602L386.874 84.7759C388.879 83.9946 389.609 82.7716 389.397 81.4467Z" fill="#E0E0E0"/>
<path d="M104.682 190.139C105.274 194.129 104.668 198.206 102.942 201.852C101.216 205.498 98.4466 208.549 94.9849 210.62C91.5233 212.692 87.5249 213.689 83.496 213.486C79.4671 213.284 75.589 211.89 72.3525 209.482C69.1161 207.074 66.667 203.76 65.3152 199.96C63.9634 196.159 63.7698 192.042 64.7589 188.132C65.748 184.221 67.8753 180.691 70.8714 177.99C73.8676 175.289 77.5978 173.538 81.5899 172.958C86.9292 172.183 92.3581 173.556 96.6868 176.776C101.015 179.997 103.891 184.802 104.682 190.139Z" fill="#F5F5F5"/>
<path d="M99.8837 190.836C100.334 193.877 99.8722 196.983 98.5563 199.761C97.2404 202.539 95.1297 204.865 92.4914 206.443C89.8532 208.021 86.806 208.78 83.7358 208.626C80.6655 208.471 77.7102 207.409 75.244 205.573C72.7779 203.738 70.9117 201.212 69.8819 198.316C68.8521 195.419 68.7049 192.282 69.4589 189.302C70.213 186.322 71.8344 183.632 74.1178 181.574C76.4013 179.516 79.2441 178.181 82.2864 177.74C86.356 177.147 90.4946 178.192 93.7938 180.648C97.093 183.103 99.2832 186.767 99.8837 190.836V190.836Z" fill="#EBEBEB"/>
<path d="M99.8074 190.344C99.5208 189.772 99.2959 189.171 99.1365 188.552C98.5506 186.95 97.7197 185.448 96.6736 184.101C95.9547 183.182 95.1374 182.345 94.2361 181.604C93.1994 180.761 92.0574 180.056 90.839 179.507C90.186 179.204 89.5101 178.954 88.8176 178.759C88.0981 178.545 87.3625 178.389 86.618 178.292C85.8498 178.187 85.0746 178.141 84.2994 178.156C83.4994 178.174 82.7017 178.251 81.9129 178.386C79.6099 178.789 77.4322 179.722 75.5518 181.112C74.9717 181.538 74.4238 182.006 73.9126 182.513C72.9594 183.447 72.1315 184.5 71.4497 185.647C70.8581 186.654 70.3769 187.722 70.0144 188.832C69.5008 190.458 69.2402 192.154 69.2415 193.86C69.3134 194.494 69.3134 195.136 69.2415 195.77C68.9621 195.18 68.8115 194.538 68.7999 193.885C68.6132 192.11 68.7572 190.316 69.2245 188.594C69.5517 187.411 70.0163 186.271 70.6089 185.197C71.3048 183.957 72.1615 182.815 73.1568 181.8C73.6813 181.243 74.2493 180.729 74.8553 180.262C76.1723 179.271 77.633 178.486 79.1867 177.935C80.004 177.652 80.8415 177.431 81.6921 177.273C82.5345 177.132 83.386 177.052 84.24 177.035C85.0922 177.022 85.9441 177.076 86.7878 177.197C87.5879 177.312 88.3774 177.491 89.1489 177.732C89.888 177.961 90.6091 178.245 91.306 178.581C93.7282 179.728 95.8116 181.484 97.353 183.677C98.3858 185.131 99.1402 186.763 99.5781 188.492C99.7792 189.087 99.8572 189.717 99.8074 190.344V190.344Z" fill="#E0E0E0"/>
<path d="M87.5853 201.987L88.01 204.654L85.6234 205.036L85.2073 202.437C83.0785 202.713 80.9152 202.383 78.965 201.486L79.8143 198.361C81.3366 199.101 83.0262 199.429 84.7147 199.312L84.0693 195.329C81.3261 195.116 78.2261 194.709 77.6826 191.295C77.2749 188.747 78.7612 186.301 82.4641 185.273L82.0395 182.623L84.426 182.241L84.8421 184.84C86.5706 184.655 88.3183 184.888 89.9378 185.519L89.2159 188.645C87.9908 188.17 86.6821 187.947 85.3687 187.991L86.0141 192.042C88.7658 192.237 91.8148 192.653 92.3498 196.017C92.7235 198.497 91.2542 200.934 87.5853 201.987ZM83.5087 191.796L82.9652 188.399C81.7507 188.891 81.36 189.655 81.4874 190.445C81.6148 191.235 82.4046 191.66 83.5087 191.83V191.796ZM88.5365 196.891C88.4006 196.042 87.6363 195.719 86.5492 195.524L87.0757 198.811C88.2308 198.386 88.6554 197.681 88.5365 196.917V196.891Z" fill="#E0E0E0"/>
<path d="M69.7677 145.28C67.5524 146.685 64.9699 147.402 62.3472 147.339C59.7244 147.276 57.1793 146.436 55.0341 144.926C52.8888 143.415 51.2399 141.303 50.296 138.855C49.3521 136.407 49.1557 133.734 49.7316 131.175C50.3075 128.615 51.6299 126.284 53.5313 124.477C55.4327 122.669 57.8277 121.466 60.413 121.02C62.9984 120.575 65.6579 120.906 68.0548 121.973C70.4518 123.039 72.4784 124.793 73.8782 127.011C74.8078 128.481 75.4389 130.119 75.7355 131.832C76.032 133.546 75.9882 135.301 75.6065 136.997C75.2248 138.693 74.5127 140.298 73.5109 141.719C72.509 143.14 71.2371 144.35 69.7677 145.28V145.28Z" fill="#F5F5F5"/>
<path d="M68.078 142.613C66.3885 143.683 64.4196 144.227 62.4205 144.178C60.4213 144.128 58.4818 143.487 56.8474 142.334C55.2131 141.182 53.9572 139.571 53.2389 137.704C52.5206 135.838 52.3721 133.801 52.8122 131.85C53.2523 129.899 54.2613 128.123 55.7113 126.746C57.1613 125.369 58.9873 124.453 60.9581 124.114C62.929 123.775 64.956 124.028 66.7828 124.842C68.6096 125.655 70.1539 126.993 71.2204 128.684C72.6502 130.948 73.1224 133.687 72.5332 136.299C71.9439 138.911 70.3414 141.182 68.078 142.613V142.613Z" fill="#EBEBEB"/>
<path d="M68.3491 142.443C68.3491 142.392 68.6634 142.12 69.1984 141.593C69.9979 140.823 70.6714 139.932 71.1943 138.952C71.9693 137.514 72.3777 135.906 72.3833 134.273C72.3926 133.804 72.3642 133.335 72.2983 132.871C72.2331 132.389 72.1309 131.912 71.9926 131.444C71.8508 130.959 71.6719 130.485 71.4575 130.026C71.0171 129.089 70.4293 128.229 69.7165 127.478C69.3748 127.108 69.0027 126.767 68.6039 126.459C68.2226 126.144 67.8164 125.86 67.3894 125.61C66.9948 125.356 66.5801 125.134 66.1495 124.947C65.3312 124.626 64.4748 124.412 63.6016 124.31C62.8477 124.234 62.0879 124.234 61.334 124.31C60.2317 124.425 59.1541 124.711 58.1407 125.16C57.7756 125.361 57.3915 125.526 56.9941 125.652C56.9941 125.652 57.2999 125.304 58.0048 124.888C59.0086 124.309 60.1118 123.923 61.2576 123.75C62.0521 123.623 62.859 123.591 63.6611 123.656C64.5878 123.736 65.4993 123.941 66.3703 124.268C66.845 124.44 67.305 124.651 67.7461 124.896C68.2071 125.144 68.6474 125.428 69.0625 125.746C69.9386 126.425 70.7011 127.239 71.3216 128.158C71.6423 128.625 71.9263 129.116 72.1709 129.627C72.399 130.121 72.5892 130.632 72.74 131.156C72.8816 131.662 72.9838 132.179 73.0457 132.701C73.1103 133.203 73.133 133.708 73.1136 134.213C73.0903 135.14 72.9418 136.06 72.672 136.948C72.4325 137.718 72.1017 138.456 71.6868 139.148C71.0963 140.148 70.3244 141.029 69.4107 141.746C69.109 142.05 68.7475 142.287 68.3491 142.443Z" fill="#E0E0E0"/>
<path d="M58.2099 138.248L56.7321 139.208L55.8828 137.891L57.3181 136.957C56.589 135.764 56.2148 134.389 56.2395 132.991L58.3118 132.668C58.2764 133.77 58.5281 134.861 59.0422 135.836L61.2418 134.401C60.6473 132.702 60.0698 130.757 61.9552 129.534C63.3481 128.626 65.208 128.855 66.7962 130.783L68.2569 129.832L69.1062 131.148L67.6709 132.082C68.2326 133.057 68.5557 134.152 68.6136 135.275L66.5584 135.675C66.518 134.821 66.3072 133.983 65.9384 133.212L63.6963 134.672C64.3078 136.371 64.8683 138.282 63.0083 139.488C61.641 140.38 59.798 140.15 58.2099 138.248ZM63.1697 133.152L65.0381 131.929C64.4267 131.335 63.8661 131.309 63.433 131.59C62.9999 131.87 62.9744 132.439 63.1697 133.144V133.152ZM61.4711 137.484C61.9297 137.178 61.9297 136.634 61.7599 135.938L59.9424 137.127C60.5199 137.687 61.055 137.747 61.4711 137.475V137.484Z" fill="#E0E0E0"/>
<path d="M425.4 35.8913C423.185 37.2967 420.603 38.0133 417.98 37.9503C415.357 37.8873 412.812 37.0475 410.667 35.5373C408.522 34.0271 406.873 31.9144 405.929 29.4666C404.985 27.0187 404.788 24.3459 405.364 21.7864C405.94 19.2269 407.263 16.8958 409.164 15.0882C411.066 13.2806 413.461 12.0778 416.046 11.6321C418.631 11.1863 421.291 11.5176 423.688 12.5841C426.085 13.6506 428.111 15.4043 429.511 17.6231C430.442 19.0922 431.074 20.7303 431.371 22.4438C431.668 24.1574 431.624 25.9127 431.243 27.6093C430.861 29.306 430.148 30.9108 429.146 32.3319C428.144 33.753 426.871 34.9625 425.4 35.8913V35.8913Z" fill="#F5F5F5"/>
<path d="M423.701 33.2239C422.012 34.2961 420.044 34.843 418.044 34.7954C416.044 34.7478 414.103 34.1078 412.467 32.9564C410.832 31.8051 409.574 30.1942 408.855 28.3278C408.135 26.4614 407.985 24.4234 408.425 22.4719C408.864 20.5204 409.872 18.7432 411.323 17.3652C412.773 15.9873 414.599 15.0707 416.571 14.7315C418.542 14.3923 420.57 14.6458 422.397 15.4598C424.224 16.2737 425.769 17.6117 426.835 19.3041C428.265 21.5656 428.739 24.3026 428.151 26.913C427.563 29.5235 425.963 31.7936 423.701 33.2239V33.2239Z" fill="#EBEBEB"/>
<path d="M423.955 33.0538C423.955 33.0028 424.269 32.7311 424.804 32.2045C425.604 31.434 426.277 30.5427 426.8 29.5632C427.165 28.8967 427.45 28.1898 427.65 27.457C427.875 26.626 427.994 25.77 428.006 24.9091C428.022 24.4242 428.002 23.9388 427.947 23.4568C427.882 22.9741 427.779 22.4971 427.641 22.03C427.501 21.5435 427.322 21.0692 427.106 20.6117C426.886 20.14 426.63 19.6858 426.342 19.2528C426.058 18.8255 425.742 18.4195 425.399 18.0384C425.055 17.6651 424.68 17.3213 424.278 17.0107C423.898 16.6935 423.492 16.4094 423.063 16.1614C422.657 15.927 422.234 15.7226 421.798 15.5499C420.981 15.2275 420.124 15.0161 419.25 14.9215C418.497 14.8366 417.736 14.8366 416.982 14.9215C415.88 15.036 414.803 15.3226 413.789 15.7708C413.426 15.9767 413.042 16.1419 412.643 16.2633C412.643 16.2633 412.948 15.9151 413.653 15.499C414.66 14.935 415.763 14.5634 416.906 14.4034C417.701 14.2751 418.508 14.2466 419.31 14.3185C420.236 14.3944 421.148 14.5972 422.019 14.9215C422.493 15.0939 422.954 15.304 423.395 15.5499C424.339 16.0702 425.198 16.7318 425.942 17.5118C426.318 17.9091 426.661 18.3351 426.97 18.7857C427.29 19.253 427.574 19.7442 427.819 20.255C428.045 20.7496 428.232 21.2607 428.38 21.7837C428.526 22.2893 428.628 22.8064 428.686 23.3294C428.75 23.8306 428.773 24.3362 428.754 24.8412C428.73 25.7685 428.582 26.6884 428.312 27.5759C428.071 28.3641 427.734 29.1199 427.31 29.8265C426.717 30.8077 425.948 31.6714 425.042 32.3744C424.73 32.6729 424.36 32.9042 423.955 33.0538V33.0538Z" fill="#E0E0E0"/>
<path d="M413.813 28.8587L412.336 29.8269L411.486 28.5105L412.922 27.5763C412.183 26.383 411.797 25.005 411.809 23.6016L413.881 23.2789C413.85 24.3799 414.101 25.4707 414.612 26.4467L416.811 25.0114C416.217 23.3129 415.639 21.368 417.525 20.145C418.918 19.2363 420.778 19.4656 422.366 21.3935L423.86 20.4847L424.71 21.8011L423.274 22.7354C423.834 23.7141 424.154 24.8112 424.209 25.9372L422.162 26.3278C422.116 25.4763 421.902 24.6423 421.533 23.8734L419.291 25.3257C419.903 27.0243 420.463 28.9352 418.603 30.1411C417.245 30.9904 415.41 30.7611 413.813 28.8587ZM418.773 23.763L420.642 22.5485C420.03 21.9455 419.47 21.92 419.037 22.2003C418.603 22.4806 418.603 23.0326 418.773 23.7545V23.763ZM417.075 28.0944C417.533 27.7886 417.533 27.2451 417.363 26.5572L415.546 27.7377C416.123 28.2897 416.65 28.3576 417.075 28.1283V28.0944Z" fill="#E0E0E0"/>
<path d="M570 385.136C570 385.254 442.514 385.356 285.285 385.356C128.056 385.356 0.535156 385.254 0.535156 385.136C0.535156 385.017 127.996 384.915 285.285 384.915C442.573 384.915 570 385.008 570 385.136Z" fill="#0D395A"/>
<path d="M534.96 100.013H211.619C210.293 100.013 208.98 100.274 207.756 100.781C206.531 101.289 205.418 102.033 204.481 102.971C203.544 103.909 202.801 105.022 202.295 106.247C201.788 107.472 201.528 108.785 201.529 110.111V338.493C201.529 341.169 202.592 343.735 204.484 345.627C206.377 347.519 208.943 348.582 211.619 348.582H335.717C335.717 348.582 343.615 372.991 319.139 385.628H435.177C435.177 385.628 407.567 376.15 414.65 348.582H534.96C537.636 348.582 540.202 347.519 542.094 345.627C543.987 343.735 545.05 341.169 545.05 338.493V110.111C545.051 108.785 544.791 107.472 544.284 106.247C543.778 105.022 543.034 103.909 542.097 102.971C541.16 102.033 540.048 101.289 538.823 100.781C537.598 100.274 536.286 100.013 534.96 100.013V100.013Z" fill="#0D395A"/>
<path d="M377.602 324.53C382.002 330.814 375.122 337.702 368.829 333.303C368.62 333.155 368.439 332.971 368.294 332.759C363.903 326.475 370.783 319.604 377.067 323.995C377.274 324.142 377.455 324.323 377.602 324.53V324.53Z" fill="#0D395A"/>
<path d="M215.33 104.2H531.266C533.451 104.2 535.546 105.068 537.091 106.613C538.636 108.158 539.504 110.253 539.504 112.438V306.806H207.135V112.438C207.135 110.261 207.997 108.172 209.533 106.628C211.068 105.084 213.153 104.211 215.33 104.2Z" fill="white"/>
<path d="M246.159 149.934H235.254V271.688H246.159V149.934Z" fill="#3B46E7"/>
<path d="M267.204 191.286H256.299V271.688H267.204V191.286Z" fill="#3B46E7"/>
<path d="M288.251 165.068H277.346V272.308H288.251V165.068Z" fill="#3B46E7"/>
<path d="M309.303 154.638H298.398V271.687H309.303V154.638Z" fill="#3B46E7"/>
<path d="M330.35 193.765H319.445V271.688H330.35V193.765Z" fill="#3B46E7"/>
<path d="M351.393 209.043H340.488V271.687H351.393V209.043Z" fill="#3B46E7"/>
<path d="M372.44 162.435H361.535V271.687H372.44V162.435Z" fill="#3B46E7"/>
<path d="M393.485 182.13H382.58V271.687H393.485V182.13Z" fill="#3B46E7"/>
<path d="M414.54 166.393H403.635V271.688H414.54V166.393Z" fill="#3B46E7"/>
<path d="M435.585 199.949H424.68V271.688H435.585V199.949Z" fill="#3B46E7"/>
<path d="M477.565 162.435H466.66V271.687H477.565V162.435Z" fill="#3B46E7"/>
<path d="M522.262 232.731H511.357V270.117H522.262V232.731Z" fill="#3B46E7"/>
<path d="M500.469 199.949H489.564V271.688H500.469V199.949Z" fill="#3B46E7"/>
<path d="M456.63 186.3H445.725V271.687H456.63V186.3Z" fill="#3B46E7"/>
<path d="M525.32 165.459C525 165.43 524.682 165.379 524.369 165.306L521.592 164.737C520.094 164.416 518.58 164.175 517.056 164.015C514.987 163.726 512.903 163.553 510.814 163.497C505.086 163.305 499.356 163.796 493.743 164.957C486.325 166.549 479.19 169.252 472.579 172.975C464.568 177.488 457.329 183.25 451.135 190.045C444.459 197.366 438.828 206.411 433.07 215.983C427.312 225.554 421.333 235.831 412.764 244.697C408.478 249.279 403.414 253.066 397.808 255.882C394.898 257.295 391.787 258.246 388.585 258.702C385.33 259.135 382.027 259.023 378.809 258.371C372.338 256.944 366.605 253.547 361.781 249.445C357.049 245.369 352.816 240.748 349.169 235.678C341.848 225.826 336.651 215.21 331.088 205.537C325.525 195.863 319.945 186.759 313.023 179.667C309.746 176.214 305.984 173.256 301.855 170.886C299.915 169.766 297.897 168.787 295.817 167.955C293.806 167.213 291.749 166.603 289.659 166.13C282.267 164.442 274.567 164.658 267.281 166.758C261.778 168.332 256.582 170.831 251.917 174.147C249 176.292 246.298 178.715 243.849 181.383L241.955 183.48C241.748 183.731 241.521 183.964 241.275 184.177C241.442 183.901 241.635 183.642 241.853 183.404L243.645 181.196C246.037 178.443 248.71 175.947 251.62 173.748C256.292 170.326 261.521 167.74 267.077 166.104C274.464 163.885 282.297 163.593 289.829 165.255C298.212 166.953 306.756 171.743 313.728 178.928C320.701 186.113 326.51 195.226 332.047 204.942C337.585 214.658 342.867 225.215 350.112 234.939C353.71 239.94 357.883 244.501 362.545 248.528C367.267 252.545 372.839 255.823 379.039 257.19C382.114 257.81 385.271 257.916 388.381 257.504C391.461 257.063 394.454 256.149 397.256 254.795C402.746 252.039 407.706 248.332 411.906 243.848C420.356 235.16 426.267 224.9 432.111 215.397C437.954 205.893 443.593 196.712 450.387 189.358C456.685 182.523 464.033 176.737 472.155 172.219C478.86 168.499 486.094 165.827 493.608 164.295C499.275 163.168 505.06 162.74 510.831 163.021C512.934 163.107 515.03 163.32 517.107 163.658C518.635 163.85 520.149 164.133 521.643 164.507L524.394 165.195C524.709 165.258 525.019 165.346 525.32 165.459V165.459Z" fill="#0D395A"/>
<path d="M223.27 280.172C223.024 280.172 222.82 245.453 222.82 202.632C222.82 159.811 223.024 125.092 223.27 125.092C223.517 125.092 223.721 159.802 223.721 202.632C223.721 245.462 223.5 280.172 223.27 280.172Z" fill="#0D395A"/>
<path d="M522.22 280.172C522.22 280.418 456.825 280.613 376.142 280.613C295.46 280.613 230.064 280.418 230.064 280.172C230.064 279.925 295.46 279.722 376.142 279.722C456.825 279.722 522.22 279.925 522.22 280.172Z" fill="#0D395A"/>
<path d="M250.806 289.753C250.806 289.999 247.188 290.203 242.721 290.203C238.253 290.203 234.627 289.999 234.627 289.753C234.627 289.506 238.245 289.303 242.721 289.303C247.196 289.303 250.806 289.506 250.806 289.753Z" fill="#0D395A"/>
<path d="M277.625 290.237C277.625 290.492 273.294 290.687 267.96 290.687C262.627 290.687 258.287 290.492 258.287 290.237C258.287 289.982 262.618 289.795 267.96 289.795C273.303 289.795 277.625 289.99 277.625 290.237Z" fill="#0D395A"/>
<path d="M300.555 290.237C300.555 290.492 296.224 290.687 290.89 290.687C285.557 290.687 281.217 290.492 281.217 290.237C281.217 289.982 285.548 289.795 290.89 289.795C296.232 289.795 300.555 289.99 300.555 290.237Z" fill="#0D395A"/>
<path d="M323.418 290.237C323.418 290.492 319.087 290.687 313.753 290.687C308.42 290.687 304.08 290.492 304.08 290.237C304.08 289.982 308.411 289.795 313.753 289.795C319.096 289.795 323.418 289.99 323.418 290.237Z" fill="#0D395A"/>
<path d="M346.307 290.237C346.307 290.492 341.984 290.687 336.642 290.687C331.3 290.687 326.969 290.492 326.969 290.237C326.969 289.982 331.3 289.795 336.642 289.795C341.984 289.795 346.307 289.99 346.307 290.237Z" fill="#0D395A"/>
<path d="M369.204 290.237C369.204 290.492 364.872 290.687 359.53 290.687C354.188 290.687 349.865 290.492 349.865 290.237C349.865 289.982 354.188 289.795 359.53 289.795C364.872 289.795 369.204 289.99 369.204 290.237Z" fill="#0D395A"/>
<path d="M392.092 290.237C392.092 290.492 387.761 290.687 382.419 290.687C377.077 290.687 372.754 290.492 372.754 290.237C372.754 289.982 377.077 289.795 382.419 289.795C387.761 289.795 392.092 289.99 392.092 290.237Z" fill="#0D395A"/>
<path d="M414.981 290.237C414.981 290.492 410.65 290.687 405.308 290.687C399.965 290.687 395.643 290.492 395.643 290.237C395.643 289.982 399.974 289.795 405.308 289.795C410.641 289.795 414.981 289.99 414.981 290.237Z" fill="#0D395A"/>
<path d="M437.87 290.237C437.87 290.492 433.538 290.687 428.205 290.687C422.871 290.687 418.531 290.492 418.531 290.237C418.531 289.982 422.863 289.795 428.205 289.795C433.547 289.795 437.87 289.99 437.87 290.237Z" fill="#0D395A"/>
<path d="M460.758 290.237C460.758 290.492 456.427 290.687 451.093 290.687C445.76 290.687 441.42 290.492 441.42 290.237C441.42 289.982 445.751 289.795 451.093 289.795C456.435 289.795 460.758 289.99 460.758 290.237Z" fill="#0D395A"/>
<path d="M482.049 290.245C482.049 290.5 477.718 290.695 472.376 290.695C467.034 290.695 462.711 290.5 462.711 290.245C462.711 289.99 467.042 289.804 472.376 289.804C477.709 289.804 482.049 289.999 482.049 290.245Z" fill="#0D395A"/>
<path d="M503.34 290.253C503.34 290.499 499.009 290.703 493.667 290.703C488.325 290.703 484.002 290.499 484.002 290.253C484.002 290.007 488.325 289.811 493.667 289.811C499.009 289.811 503.34 290.007 503.34 290.253Z" fill="#0D395A"/>
<path d="M524.623 290.261C524.623 290.508 520.292 290.711 514.959 290.711C509.625 290.711 505.285 290.508 505.285 290.261C505.285 290.015 509.617 289.811 514.959 289.811C520.301 289.811 524.623 290.015 524.623 290.261Z" fill="#0D395A"/>
<path d="M334.527 206.624C334.527 206.437 335.869 206.904 336.294 208.73C336.566 209.784 336.445 210.901 335.954 211.873C335.624 212.513 335.052 212.996 334.366 213.215C333.621 213.424 332.824 213.329 332.149 212.951C331.538 212.61 331.036 212.103 330.701 211.488C330.366 210.873 330.211 210.176 330.255 209.478C330.295 208.928 330.451 208.393 330.713 207.909C330.976 207.424 331.338 207.001 331.776 206.667C332.063 206.432 332.398 206.265 332.758 206.176C333.118 206.088 333.493 206.082 333.856 206.157C334.366 206.31 334.536 206.556 334.502 206.607C334.468 206.658 333.398 206.267 332.328 207.329C331.74 207.909 331.399 208.694 331.376 209.52C331.373 209.998 331.496 210.468 331.733 210.883C331.97 211.298 332.313 211.642 332.727 211.881C332.912 211.996 333.118 212.073 333.333 212.106C333.549 212.14 333.769 212.129 333.98 212.075C334.191 212.021 334.389 211.925 334.562 211.792C334.735 211.66 334.879 211.494 334.986 211.304C335.391 210.566 335.552 209.718 335.445 208.883C335.3 207.329 334.434 206.769 334.527 206.624Z" fill="#0D395A"/>
<path d="M478.006 166.563C478.006 166.495 478.354 166.384 478.957 166.563C479.79 166.874 480.481 167.478 480.902 168.261C481.239 168.832 481.455 169.465 481.537 170.123C481.619 170.78 481.565 171.447 481.378 172.083C481.157 172.913 480.676 173.651 480.005 174.187C479.333 174.724 478.508 175.031 477.65 175.064C477.189 175.043 476.738 174.922 476.329 174.709C475.92 174.497 475.562 174.197 475.28 173.832C474.785 173.212 474.442 172.485 474.278 171.709C474.115 171.068 474.085 170.401 474.191 169.748C474.296 169.095 474.534 168.47 474.889 167.913C476.231 166.019 477.887 166.112 477.828 166.214C477.904 166.393 476.52 166.656 475.628 168.312C475.156 169.27 475.062 170.371 475.365 171.395C475.654 172.516 476.52 173.799 477.692 173.807C478.291 173.758 478.862 173.53 479.329 173.153C479.797 172.776 480.141 172.267 480.316 171.692C480.648 170.685 480.584 169.589 480.138 168.626C479.688 167.712 478.934 166.983 478.006 166.563V166.563Z" fill="#0D395A"/>
<path d="M354.307 42.4053H135.521V212.679H354.307V42.4053Z" fill="white"/>
<path d="M354.307 212.679C354.307 210.981 354.23 145.161 354.103 42.4054L354.307 42.6092H135.547L135.793 42.3629C135.793 103.741 135.793 161.79 135.793 212.637L135.572 212.416L354.358 212.637L135.572 212.858H135.352V212.637C135.352 161.79 135.352 103.741 135.352 42.3629V42.1166H135.623H354.383H354.587V42.3205C354.392 145.161 354.315 210.981 354.307 212.679Z" fill="#0D395A"/>
<path d="M181.613 64.7756H146.197V66.7459H181.613V64.7756Z" fill="#0D395A"/>
<path d="M163.701 69.3881H146.197V71.3584H163.701V69.3881Z" fill="#0D395A"/>
<path d="M172.797 188.212H166.385V190.063H172.797V188.212Z" fill="#0D395A"/>
<path d="M189.103 198.097H180.898V199.948H189.103V198.097Z" fill="#0D395A"/>
<path d="M217.665 198.097H209.461V199.948H217.665V198.097Z" fill="#0D395A"/>
<path d="M246.226 198.097H238.021V199.948H246.226V198.097Z" fill="#0D395A"/>
<path d="M274.788 198.097H266.584V199.948H274.788V198.097Z" fill="#0D395A"/>
<path d="M303.351 198.097H295.146V199.948H303.351V198.097Z" fill="#0D395A"/>
<path d="M331.911 198.097H323.707V199.948H331.911V198.097Z" fill="#0D395A"/>
<path d="M172.797 163.522H166.385V165.373H172.797V163.522Z" fill="#0D395A"/>
<path d="M172.797 117.05H166.385V118.902H172.797V117.05Z" fill="#0D395A"/>
<path d="M172.797 93.6939H166.385V95.5453H172.797V93.6939Z" fill="#0D395A"/>
<path d="M173.129 140.286H166.717V142.137H173.129V140.286Z" fill="#0D395A"/>
<path d="M331.683 190.063C331.683 190.063 331.453 190.063 330.995 190.063H328.973L321.211 190.105L292.666 190.181L198.472 190.241H175.932V190.02C175.932 158.52 175.991 130.799 176.008 110.943C176.008 101.023 176.059 93.1078 176.076 87.5874C176.076 84.8612 176.076 82.7465 176.076 81.3027C176.076 80.5893 176.076 80.0542 176.076 79.6721C176.076 79.2899 176.076 79.12 176.076 79.12C176.076 79.12 176.076 79.3069 176.076 79.6721C176.076 80.0373 176.076 80.5893 176.076 81.3027C176.076 82.7465 176.076 84.8612 176.076 87.5874C176.076 93.0738 176.076 101.023 176.144 110.943C176.144 130.799 176.186 158.503 176.22 190.02L176 189.799H198.472L292.666 189.867L321.211 189.935L328.973 189.978H330.995L331.683 190.063Z" fill="#0D395A"/>
<path d="M333.492 141.211C333.492 141.33 299.656 141.432 257.905 141.432C216.154 141.432 182.318 141.33 182.318 141.211C182.318 141.093 216.146 140.991 257.905 140.991C299.665 140.991 333.492 141.084 333.492 141.211Z" fill="#0D395A"/>
<path d="M333.492 117.975C333.492 118.094 299.656 118.196 257.905 118.196C216.154 118.196 182.318 118.094 182.318 117.975C182.318 117.856 216.146 117.754 257.905 117.754C299.665 117.754 333.492 117.856 333.492 117.975Z" fill="#0D395A"/>
<path d="M333.492 94.6189C333.492 94.7463 299.656 94.8398 257.905 94.8398C216.154 94.8398 182.318 94.7463 182.318 94.6189C182.318 94.4915 216.146 94.3981 257.905 94.3981C299.665 94.3981 333.492 94.5 333.492 94.6189Z" fill="#0D395A"/>
<path d="M333.492 164.448C333.492 164.567 299.656 164.669 257.905 164.669C216.154 164.669 182.318 164.567 182.318 164.448C182.318 164.329 216.146 164.227 257.905 164.227C299.665 164.227 333.492 164.329 333.492 164.448Z" fill="#0D395A"/>
<path d="M183.916 185.06V164.448L196.766 144.481L205.488 151.173L223.382 123.376L233.939 130.807L248.623 105.159L260.513 114.883L278.476 80.8777L297.755 118.9L313.297 99.8762L331.65 94.6191V185.06H183.916Z" fill="#0D395A"/>
<path d="M333.492 87.2984C333.385 87.3057 333.277 87.3057 333.169 87.2984H332.21H328.49L314.4 87.3579L314.493 87.3069L299.393 107.112L299.334 107.18H299.249H261.455L261.642 107.078L245.752 133.525C240.342 142.528 235.102 151.233 230.151 159.454L229.989 159.734L229.802 159.471L209.317 131.334H209.615L190.998 160.448L185.809 168.499C185.215 169.416 184.756 170.121 184.433 170.605C184.111 171.089 183.949 171.319 183.949 171.319C183.949 171.319 184.094 171.064 184.391 170.58L185.716 168.448C186.896 166.571 188.62 163.828 190.811 160.337L209.326 131.147L209.47 130.926L209.632 131.139L230.159 159.242H229.802L245.353 133.321L261.26 106.875L261.319 106.773H261.489L299.283 106.815L299.147 106.883L314.341 87.2305V87.1795H314.4L328.49 87.239H332.21H333.169L333.492 87.2984Z" fill="#0D395A"/>
<path d="M215.628 137.848C215.64 138.137 215.565 138.424 215.413 138.67C215.26 138.917 215.038 139.112 214.774 139.231C214.51 139.35 214.216 139.388 213.931 139.339C213.645 139.29 213.381 139.156 213.172 138.956C212.963 138.755 212.818 138.497 212.757 138.213C212.696 137.93 212.721 137.635 212.829 137.366C212.937 137.097 213.123 136.867 213.363 136.705C213.603 136.542 213.886 136.455 214.176 136.455C214.553 136.448 214.917 136.591 215.189 136.852C215.461 137.113 215.619 137.471 215.628 137.848V137.848Z" fill="#0D395A"/>
<path d="M259.247 113.057C259.259 113.347 259.184 113.634 259.031 113.88C258.879 114.127 258.656 114.323 258.391 114.441C258.126 114.56 257.832 114.597 257.547 114.547C257.261 114.497 256.997 114.363 256.788 114.162C256.579 113.96 256.435 113.701 256.375 113.417C256.315 113.134 256.341 112.838 256.451 112.57C256.56 112.301 256.747 112.071 256.988 111.91C257.229 111.748 257.513 111.663 257.803 111.664C257.99 111.661 258.175 111.694 258.348 111.763C258.521 111.831 258.68 111.932 258.814 112.062C258.948 112.191 259.055 112.346 259.129 112.516C259.204 112.687 259.244 112.871 259.247 113.057V113.057Z" fill="#0D395A"/>
<path d="M291.691 108.378C292.493 108.378 293.143 107.755 293.143 106.985C293.143 106.216 292.493 105.593 291.691 105.593C290.888 105.593 290.238 106.216 290.238 106.985C290.238 107.755 290.888 108.378 291.691 108.378Z" fill="#0D395A"/>
<path d="M144.669 49.4122C144.669 49.7482 144.569 50.0766 144.382 50.3559C144.196 50.6353 143.93 50.853 143.62 50.9815C143.31 51.1101 142.968 51.1437 142.639 51.0782C142.309 51.0126 142.007 50.8509 141.769 50.6133C141.531 50.3758 141.37 50.0731 141.304 49.7436C141.239 49.4141 141.272 49.0726 141.401 48.7622C141.529 48.4519 141.747 48.1866 142.026 47.9999C142.306 47.8133 142.634 47.7137 142.97 47.7137C143.421 47.7137 143.853 47.8926 144.171 48.2112C144.49 48.5297 144.669 48.9618 144.669 49.4122Z" fill="#0D395A"/>
<path d="M149.561 49.4122C149.561 49.7482 149.462 50.0766 149.275 50.3559C149.088 50.6353 148.823 50.853 148.513 50.9815C148.202 51.1101 147.861 51.1437 147.531 51.0782C147.202 51.0126 146.899 50.8509 146.662 50.6133C146.424 50.3758 146.262 50.0731 146.197 49.7436C146.131 49.4141 146.165 49.0726 146.293 48.7622C146.422 48.4519 146.64 48.1866 146.919 47.9999C147.198 47.8133 147.527 47.7137 147.863 47.7137C148.313 47.7137 148.745 47.8926 149.064 48.2112C149.382 48.5297 149.561 48.9618 149.561 49.4122Z" fill="#0D395A"/>
<path d="M154.477 49.4122C154.477 49.7482 154.378 50.0766 154.191 50.3559C154.004 50.6353 153.739 50.853 153.429 50.9815C153.118 51.1101 152.777 51.1437 152.447 51.0782C152.118 51.0126 151.815 50.8509 151.578 50.6133C151.34 50.3758 151.178 50.0731 151.113 49.7436C151.047 49.4141 151.081 49.0726 151.209 48.7622C151.338 48.4519 151.556 48.1866 151.835 47.9999C152.114 47.8133 152.443 47.7137 152.779 47.7137C153.229 47.7137 153.661 47.8926 153.98 48.2112C154.298 48.5297 154.477 48.9618 154.477 49.4122Z" fill="#0D395A"/>
<path d="M354.13 56.0446C354.13 56.1635 305.245 56.2654 244.954 56.2654C184.663 56.2654 135.795 56.155 135.795 56.0446C135.795 55.9342 184.671 55.8238 244.979 55.8238C305.287 55.8238 354.13 55.9172 354.13 56.0446Z" fill="#0D395A"/>
<path d="M0.688318 313.973L5.28297 330.475C6.54667 334.956 9.41315 338.816 13.3373 341.321C17.2614 343.827 21.9695 344.802 26.5661 344.063V344.063C26.5661 344.063 35.2629 356.463 38.9743 358.501L42.3205 384.939H62.1683L63.7395 374.23C78.0048 380.219 93.4237 382.961 108.879 382.256C134.01 380.922 140.031 373.559 140.031 373.559L143.038 384.939H165.459L169.145 355.826C169.145 355.826 196.577 331.4 189.528 302.958C189.528 302.958 209.265 289.479 202.573 270.285L198.556 268.476C198.556 268.476 192.194 279.848 185.502 282.192C185.502 282.192 167.497 224.305 99.7239 228.993C99.7239 228.993 77.1073 227.991 55.6883 238.021C55.6883 238.021 31.9082 225.647 14.2005 234.675C14.2005 234.675 13.8693 255.058 23.8994 266.803C23.8994 266.803 15.2027 286.21 14.5572 290.227L11.9669 291.263C7.61913 292.994 4.06348 296.269 1.98202 300.46C-0.0994367 304.651 -0.560131 309.463 0.688318 313.973V313.973Z" fill="#3B46E7"/>
<path d="M48.6308 289.106C48.6308 290.202 48.3055 291.275 47.6961 292.187C47.0867 293.099 46.2206 293.81 45.2072 294.229C44.1939 294.649 43.0788 294.759 42.003 294.545C40.9272 294.331 39.939 293.803 39.1634 293.027C38.3878 292.252 37.8596 291.263 37.6456 290.188C37.4316 289.112 37.5415 287.997 37.9612 286.983C38.381 285.97 39.0918 285.104 40.0038 284.494C40.9158 283.885 41.9881 283.56 43.0849 283.56C44.5558 283.56 45.9664 284.144 47.0064 285.184C48.0465 286.224 48.6308 287.635 48.6308 289.106V289.106Z" fill="#0D395A"/>
<g opacity="0.6">
<path opacity="0.6" d="M74.1777 243.686L76.6662 250.667C76.6662 250.667 106.824 241.69 126.265 250.667L129.008 243.686C129.008 243.686 105.33 232.721 74.1777 243.686Z" fill="black"/>
</g>
<path d="M131.454 253.868C131.262 253.773 131.078 253.666 130.902 253.546C130.545 253.316 130.01 253.002 129.322 252.603C127.364 251.49 125.309 250.558 123.181 249.817C120.026 248.725 116.764 247.974 113.449 247.575C109.385 247.101 105.29 246.948 101.202 247.116C97.1084 247.232 93.0236 247.558 88.9636 248.093C85.6513 248.52 82.3905 249.279 79.2308 250.361C77.1033 251.095 75.0593 252.051 73.1329 253.214C71.7655 254.064 71.0691 254.582 71.0352 254.539C71.1899 254.389 71.3575 254.252 71.5362 254.132C72.0165 253.749 72.5184 253.395 73.0395 253.07C74.9482 251.841 76.9913 250.836 79.1289 250.072C82.2945 248.937 85.5711 248.14 88.9042 247.694C92.9795 247.14 97.082 246.808 101.193 246.7C105.302 246.529 109.418 246.694 113.5 247.193C116.84 247.619 120.123 248.408 123.292 249.545C125.42 250.322 127.468 251.303 129.407 252.475C130.095 252.9 130.613 253.248 130.944 253.495C131.123 253.606 131.294 253.731 131.454 253.868Z" fill="#0D395A"/>
<g opacity="0.2">
<path opacity="0.2" d="M13.378 306.635C13.0584 305.772 12.5507 304.992 11.8918 304.35C11.5575 304.034 11.1381 303.824 10.6853 303.744C10.2324 303.664 9.7661 303.718 9.34389 303.9V303.9C8.69944 304.411 8.24977 305.128 8.06996 305.93C6.95059 310.985 7.8301 316.278 10.5244 320.699C10.7066 321.008 10.9521 321.276 11.2448 321.484C11.5375 321.691 11.8709 321.835 12.223 321.905C13.7432 322.168 14.5415 320.784 14.9152 319.527C16.1977 315.289 15.1955 310.677 13.378 306.635Z" fill="black"/>
</g>
<path d="M25.5549 320.282C25.5122 319.861 25.5122 319.437 25.5549 319.017C25.5829 318.522 25.5829 318.025 25.5549 317.53C25.5549 316.953 25.5549 316.29 25.5549 315.56C25.5549 314.83 25.4784 314.04 25.368 313.191C25.2576 312.341 25.1217 311.441 24.9604 310.49C24.1828 306.384 22.6725 302.451 20.5016 298.88C19.9835 298.031 19.5164 297.283 18.9984 296.604C18.4803 295.924 18.0132 295.279 17.5461 294.71C17.079 294.141 16.6373 293.665 16.2552 293.232C15.873 292.799 15.5248 292.442 15.236 292.154C14.9263 291.871 14.6421 291.561 14.3867 291.228C14.7386 291.467 15.0683 291.737 15.3719 292.035C15.7494 292.358 16.1094 292.701 16.4505 293.062C16.9269 293.521 17.3777 294.006 17.8009 294.515C18.285 295.067 18.803 295.678 19.3126 296.383C19.8222 297.088 20.3317 297.852 20.8668 298.668C21.9697 300.458 22.9132 302.343 23.6864 304.298C24.4282 306.275 24.9966 308.313 25.385 310.388C25.5294 311.348 25.6908 312.256 25.7502 313.123C25.8097 313.989 25.8691 314.821 25.8861 315.518C25.9031 316.214 25.8861 316.919 25.8861 317.505C25.8769 318.002 25.84 318.498 25.7757 318.991C25.7371 319.427 25.6633 319.858 25.5549 320.282V320.282Z" fill="#0D395A"/>
<path d="M31.6454 308.393C31.5604 308.393 31.2377 306.992 30.295 304.843C29.74 303.592 29.0898 302.385 28.3501 301.233C27.4245 299.855 26.3847 298.557 25.2417 297.352C24.0698 296.155 22.7968 295.061 21.4369 294.082C20.3185 293.295 19.14 292.596 17.9124 291.993C15.8146 290.965 14.3963 290.583 14.4303 290.498C14.7698 290.533 15.1037 290.61 15.424 290.728C15.8143 290.829 16.1973 290.957 16.5705 291.11C17.0739 291.283 17.5672 291.485 18.0483 291.713C19.3138 292.286 20.5272 292.968 21.6747 293.751C23.0695 294.725 24.369 295.828 25.556 297.046C26.7273 298.285 27.7768 299.633 28.6898 301.072C29.4288 302.248 30.0625 303.487 30.5838 304.775C30.8216 305.318 30.9744 305.837 31.1273 306.278C31.2589 306.656 31.3667 307.042 31.45 307.433C31.5559 307.743 31.6215 308.066 31.6454 308.393Z" fill="#0D395A"/>
<path d="M8.53577 305.845C8.49984 305.691 8.50785 305.53 8.55888 305.38C8.60991 305.229 8.70193 305.097 8.82453 304.996C9.09696 304.725 9.45324 304.554 9.83518 304.512C10.0891 304.487 10.3454 304.514 10.589 304.589C10.8326 304.665 11.0585 304.789 11.2535 304.954C12.1295 305.859 12.7836 306.955 13.1644 308.155C14.3205 310.97 14.8982 313.988 14.863 317.031C14.9564 318.291 14.7254 319.554 14.192 320.699C13.9761 321.083 13.6508 321.394 13.2575 321.592C12.8642 321.79 12.4208 321.867 11.9839 321.812C11.3554 321.693 11.1346 321.336 11.1856 321.345C11.4438 321.504 11.7336 321.606 12.0348 321.642C12.4268 321.661 12.8158 321.566 13.1559 321.371C13.4961 321.175 13.7731 320.886 13.9542 320.538C14.4185 319.431 14.6023 318.226 14.4893 317.031C14.4836 315.54 14.3386 314.053 14.0562 312.589C13.7796 311.125 13.3702 309.689 12.8332 308.3C12.4855 307.15 11.8914 306.089 11.0921 305.191C10.8092 304.926 10.4394 304.773 10.0518 304.761C9.66424 304.748 9.28535 304.877 8.9859 305.123C8.76291 305.31 8.60524 305.563 8.53577 305.845Z" fill="#0D395A"/>
<path d="M51.2214 309.76C51.2214 309.76 51.3573 309.921 51.5101 310.269C51.7057 310.762 51.8314 311.279 51.8838 311.807C51.9872 312.686 51.9098 313.577 51.6564 314.425C51.403 315.273 50.979 316.06 50.4104 316.739C49.8418 317.417 49.1405 317.972 48.3497 318.37C47.5588 318.767 46.6951 318.999 45.8114 319.051C45.2827 319.092 44.7508 319.058 44.2317 318.949C43.8665 318.864 43.6797 318.788 43.6797 318.754C44.3781 318.801 45.079 318.801 45.7774 318.754C47.4484 318.575 48.9853 317.757 50.0653 316.469C51.1454 315.182 51.6845 313.526 51.5696 311.849C51.4961 311.146 51.3798 310.449 51.2214 309.76V309.76Z" fill="#0D395A"/>
<path d="M48.0787 275.568C46.3256 274.856 44.4868 274.376 42.6093 274.141C40.7188 274.052 38.8249 274.218 36.9785 274.634C37.4596 274.328 37.9965 274.12 38.5582 274.022C39.8937 273.696 41.2731 273.587 42.6433 273.7C44.0139 273.815 45.3565 274.153 46.6179 274.702C47.1546 274.897 47.65 275.191 48.0787 275.568V275.568Z" fill="#0D395A"/>
<path d="M141.593 238.92L141.381 238.852L140.761 238.614L138.391 237.672L136.693 236.975C136.064 236.729 135.368 236.508 134.629 236.253C133.134 235.761 131.47 235.107 129.533 234.623L126.544 233.774C125.508 233.493 124.404 233.289 123.266 233.035C121.015 232.474 118.552 232.134 115.979 231.71C110.349 230.971 104.668 230.687 98.9929 230.86C93.3318 231.105 87.6997 231.807 82.1515 232.958C79.6036 233.561 77.1832 234.088 74.975 234.81C73.8709 235.149 72.7754 235.43 71.7647 235.795L68.8431 236.848C66.9662 237.468 65.3526 238.241 63.9003 238.844C63.1784 239.158 62.499 239.43 61.896 239.693L60.2483 240.542L57.9553 241.663L57.3608 241.944C57.2957 241.985 57.2238 242.013 57.1484 242.029C57.1484 242.029 57.2079 242.029 57.3353 241.91L57.9128 241.587L60.1719 240.389L61.8025 239.54C62.4055 239.243 63.085 238.954 63.7984 238.631C65.2422 238.011 66.8558 237.213 68.7327 236.568L71.6543 235.489C72.6734 235.115 73.7605 234.827 74.8731 234.47C77.0897 233.731 79.5187 233.196 82.0666 232.576C87.6347 231.398 93.2902 230.68 98.9759 230.427C104.653 230.268 110.334 230.572 115.962 231.336C118.552 231.769 121.015 232.126 123.283 232.695C124.412 232.967 125.525 233.179 126.561 233.476L129.55 234.326C131.47 234.827 133.134 235.506 134.646 236.024C135.385 236.287 136.081 236.525 136.71 236.772L138.408 237.51L140.744 238.538L141.347 238.818C141.534 238.878 141.602 238.912 141.593 238.92Z" fill="white"/>
<path d="M151.692 244.551C150.768 244.406 149.871 244.12 149.034 243.702C148.139 243.413 147.296 242.983 146.537 242.428C147.464 242.575 148.363 242.861 149.204 243.278C150.095 243.57 150.934 244 151.692 244.551V244.551Z" fill="white"/>
<path d="M10.5234 295.576C10.5234 295.653 9.75053 295.976 8.57851 296.715C5.51828 298.662 3.24431 301.628 2.15789 305.088C1.75023 306.413 1.64831 307.271 1.56338 307.263C1.52835 307.06 1.52835 306.854 1.56338 306.651C1.61109 306.091 1.7106 305.537 1.86063 304.995C2.32437 303.206 3.14202 301.528 4.26524 300.061C5.38846 298.593 6.79447 297.366 8.40016 296.451C8.88054 296.169 9.38674 295.933 9.91189 295.746C10.1041 295.654 10.3111 295.597 10.5234 295.576V295.576Z" fill="white"/>
<path d="M62.6946 379.979C62.6946 379.979 62.5417 379.775 62.185 379.504C61.6513 379.129 60.9968 378.969 60.3505 379.053C59.8548 379.105 59.3779 379.272 58.9578 379.54C58.5377 379.809 58.1858 380.171 57.9301 380.599C57.2951 381.75 57.0005 383.058 57.0808 384.37H56.6901C56.7586 383.702 56.6826 383.027 56.4672 382.391C56.2518 381.755 55.902 381.173 55.4416 380.684C54.9284 380.154 54.2682 379.79 53.5462 379.639C52.8242 379.487 52.0734 379.556 51.3905 379.835C50.9529 380.021 50.5686 380.314 50.2721 380.686C49.9756 381.058 49.7763 381.498 49.692 381.966C49.5877 382.403 49.5896 382.859 49.6974 383.295C49.8053 383.73 50.016 384.134 50.3119 384.472L49.9637 384.684C49.5126 383.062 48.6896 381.567 47.5603 380.319C47.1145 379.849 46.5558 379.5 45.9374 379.307C45.319 379.114 44.6614 379.082 44.0272 379.215C43.6184 379.33 43.2407 379.536 42.9217 379.817C42.6028 380.097 42.3508 380.446 42.1843 380.837C42.0832 381.131 42.0204 381.436 41.9974 381.746C41.9141 381.43 41.935 381.097 42.0569 380.794C42.2084 380.364 42.4585 379.974 42.7874 379.657C43.1162 379.34 43.5146 379.104 43.9508 378.968C44.6326 378.8 45.3465 378.811 46.0224 379.002C46.6984 379.193 47.3132 379.556 47.8065 380.056C49.0011 381.326 49.8747 382.863 50.3544 384.54L50.7026 385.491L50.0147 384.744C49.6692 384.358 49.4216 383.896 49.293 383.394C49.1644 382.893 49.1585 382.368 49.2758 381.865C49.3764 381.323 49.61 380.816 49.9554 380.387C50.3008 379.959 50.7473 379.623 51.2547 379.41C52.0205 379.097 52.8624 379.02 53.6722 379.19C54.4819 379.359 55.2224 379.767 55.7984 380.361C56.2951 380.898 56.6705 381.535 56.8992 382.23C57.1278 382.924 57.2042 383.66 57.1232 384.387H56.7326C56.661 383.008 56.9946 381.638 57.6923 380.446C58.0039 379.951 58.4326 379.539 58.9407 379.249C59.3804 379.017 59.8632 378.878 60.359 378.841C61.0536 378.777 61.7457 378.987 62.2869 379.427C62.4659 379.575 62.6059 379.765 62.6946 379.979V379.979Z" fill="#0D395A"/>
<path d="M181.034 378.348L179.574 384.497C179.574 384.497 169.51 397.568 166.41 396.922C164.371 396.506 166.877 393.101 170.656 383.172L171.505 379.079L181.034 378.348Z" fill="#0D395A"/>
<path d="M166.003 395.019C166.124 395.243 166.311 395.424 166.538 395.537C166.854 395.674 167.201 395.721 167.541 395.673C167.881 395.625 168.201 395.484 168.466 395.266C170.227 393.787 171.897 392.205 173.469 390.527C175.329 388.573 176.866 386.688 177.995 385.304L179.278 383.647C179.405 383.486 179.524 383.342 179.626 383.197C179.666 383.142 179.712 383.091 179.762 383.044C179.722 383.1 179.676 383.151 179.626 383.197L179.303 383.673C179.023 384.081 178.598 384.658 178.063 385.372C176.659 387.207 175.156 388.964 173.562 390.637C171.976 392.331 170.274 393.912 168.466 395.368C168.13 395.604 167.738 395.748 167.328 395.784C167.019 395.801 166.71 395.734 166.437 395.588C166.262 395.5 166.115 395.364 166.012 395.198C166 395.139 165.997 395.079 166.003 395.019V395.019Z" fill="#0D395A"/>
<path d="M167.42 390.773C167.689 390.665 167.983 390.633 168.269 390.679C168.943 390.746 169.592 390.97 170.163 391.333C170.756 391.673 171.235 392.182 171.539 392.794C171.676 393.041 171.752 393.318 171.76 393.601C171.76 393.601 171.666 393.295 171.429 392.854C171.104 392.288 170.635 391.819 170.07 391.495C169.519 391.141 168.899 390.907 168.252 390.807C167.976 390.781 167.698 390.77 167.42 390.773V390.773Z" fill="#0D395A"/>
<path d="M176.951 387.733C176.891 387.642 176.848 387.541 176.823 387.436C176.74 387.157 176.674 386.873 176.628 386.586C176.486 385.626 176.649 384.646 177.095 383.784C177.536 382.918 178.253 382.224 179.133 381.813C179.402 381.686 179.688 381.6 179.983 381.558C180.087 381.542 180.193 381.542 180.297 381.558C179.921 381.657 179.555 381.788 179.201 381.949C178.371 382.379 177.696 383.06 177.273 383.894C176.848 384.727 176.674 385.665 176.772 386.595C176.84 387.291 176.976 387.724 176.951 387.733Z" fill="#0D395A"/>
<path d="M180.398 379.392C180.398 379.392 180.211 380.241 180.025 381.354C179.947 382.022 179.769 382.674 179.498 383.29C179.498 383.29 179.659 382.441 179.846 381.32C179.927 380.652 180.114 380.001 180.398 379.392V379.392Z" fill="#0D395A"/>
<path d="M170.521 384.037C170.944 383.92 171.39 383.92 171.812 384.037C172.246 384.105 172.65 384.296 172.976 384.589C172.976 384.64 172.449 384.369 171.77 384.216C171.091 384.063 170.53 384.097 170.521 384.037Z" fill="#0D395A"/>
<path d="M170.316 385.092C170.668 384.967 171.052 384.967 171.403 385.092C171.774 385.145 172.112 385.333 172.355 385.618C172.355 385.661 171.922 385.397 171.361 385.27C170.801 385.142 170.325 385.151 170.316 385.092Z" fill="#0D395A"/>
<path d="M169.51 386.416C169.677 386.313 169.864 386.247 170.059 386.223C170.254 386.198 170.452 386.215 170.639 386.272C170.833 386.3 171.019 386.37 171.183 386.477C171.348 386.584 171.486 386.726 171.591 386.892C171.279 386.704 170.945 386.555 170.597 386.45C170.237 386.394 169.872 386.383 169.51 386.416V386.416Z" fill="#0D395A"/>
<path d="M171.217 383.597C171.217 383.597 171.675 383.478 172.397 383.197C172.815 383.031 173.221 382.835 173.612 382.611C173.824 382.484 174.053 382.34 174.274 382.187C174.495 382.034 174.707 381.813 174.699 381.575C174.69 381.337 174.393 381.202 174.164 381.261C173.925 381.344 173.711 381.487 173.544 381.677C173.17 382.025 172.856 382.357 172.601 382.645C172.083 383.223 171.803 383.605 171.752 383.588C171.795 383.485 171.852 383.387 171.922 383.299C172.041 383.121 172.227 382.866 172.474 382.56C172.765 382.211 173.074 381.876 173.399 381.558C173.585 381.343 173.826 381.181 174.096 381.091C174.177 381.066 174.263 381.058 174.347 381.069C174.431 381.08 174.512 381.109 174.584 381.154C174.656 381.199 174.717 381.26 174.763 381.331C174.809 381.402 174.84 381.483 174.852 381.567C174.835 381.724 174.782 381.875 174.696 382.008C174.611 382.14 174.495 382.251 174.359 382.331C174.136 382.486 173.903 382.628 173.663 382.756C173.264 382.98 172.846 383.167 172.414 383.316C172.123 383.419 171.825 383.501 171.523 383.563C171.336 383.605 171.217 383.614 171.217 383.597Z" fill="#0D395A"/>
<path d="M171.743 383.469C171.661 383.099 171.599 382.725 171.556 382.348C171.492 381.947 171.378 381.557 171.216 381.184C171.12 380.97 170.994 380.77 170.843 380.59C170.69 380.42 170.452 380.267 170.265 380.378C170.078 380.488 170.053 380.768 170.078 380.998C170.116 381.228 170.182 381.454 170.274 381.669C170.44 382.036 170.661 382.377 170.928 382.679C171.395 383.197 171.777 383.444 171.777 383.469C171.777 383.495 171.675 383.469 171.514 383.316C171.282 383.155 171.066 382.973 170.868 382.773C170.576 382.468 170.335 382.118 170.155 381.737C170.052 381.506 169.978 381.263 169.934 381.015C169.899 380.87 169.906 380.718 169.956 380.578C170.006 380.438 170.096 380.315 170.214 380.225C170.354 380.17 170.509 380.165 170.652 380.209C170.796 380.254 170.92 380.347 171.004 380.471C171.168 380.666 171.302 380.883 171.403 381.117C171.564 381.505 171.67 381.914 171.717 382.331C171.76 382.679 171.777 382.968 171.785 383.18C171.784 383.278 171.77 383.375 171.743 383.469V383.469Z" fill="#0D395A"/>
<path d="M229.214 381.202L229.257 372.998L213.927 372.811L213.715 384.828L214.666 384.905C218.912 385.193 236.229 386.06 239.075 385.236C242.251 384.302 229.214 381.202 229.214 381.202Z" fill="#0D395A"/>
<path d="M213.504 384.463H213.767L214.532 384.522L217.317 384.675C219.678 384.794 222.94 384.905 226.54 384.956C230.141 385.007 233.403 384.956 235.764 384.956L238.558 384.879H239.314H239.577H239.314H238.558H235.764C233.411 384.879 230.15 384.879 226.549 384.879C222.948 384.879 219.695 384.735 217.334 384.658L214.54 384.556H213.784L213.504 384.463Z" fill="#0D395A"/>
<path d="M234.201 385.142C234.332 384.682 234.512 384.238 234.736 383.817C235.019 383.431 235.344 383.078 235.704 382.764C235.224 382.929 234.824 383.268 234.583 383.715C234.283 384.127 234.147 384.635 234.201 385.142V385.142Z" fill="#0D395A"/>
<path d="M229.699 382.79C229.742 382.79 229.963 382.552 230.183 382.204C230.404 381.855 230.566 381.55 230.523 381.516C230.481 381.482 230.26 381.754 230.03 382.102C229.801 382.45 229.648 382.756 229.699 382.79Z" fill="#0D395A"/>
<path d="M228.459 382.11C228.459 382.152 228.739 381.991 229.002 381.762C229.266 381.532 229.461 381.303 229.427 381.26C229.393 381.218 229.147 381.388 228.884 381.617C228.62 381.846 228.425 382.076 228.459 382.11Z" fill="#0D395A"/>
<path d="M227.695 380.649C227.949 380.747 228.222 380.788 228.494 380.768C228.779 380.808 229.069 380.782 229.343 380.691C229.073 380.587 228.781 380.55 228.494 380.581C228.226 380.546 227.953 380.569 227.695 380.649V380.649Z" fill="#0D395A"/>
<path d="M227.432 379.63C227.698 379.802 228.007 379.897 228.323 379.902C228.637 379.959 228.96 379.918 229.249 379.783C228.957 379.741 228.661 379.724 228.366 379.732C228.059 379.668 227.746 379.634 227.432 379.63V379.63Z" fill="#0D395A"/>
<path d="M230.234 381.431C230.561 381.485 230.893 381.485 231.22 381.431C231.577 381.398 231.93 381.327 232.273 381.219C232.483 381.161 232.685 381.079 232.876 380.973C232.996 380.91 233.087 380.804 233.13 380.675C233.147 380.602 233.143 380.525 233.117 380.455C233.092 380.384 233.046 380.322 232.986 380.276C232.611 380.087 232.181 380.033 231.771 380.124C231.361 380.216 230.995 380.446 230.735 380.777C230.58 380.969 230.467 381.192 230.404 381.431C230.382 381.518 230.382 381.608 230.404 381.695C230.506 381.387 230.661 381.099 230.863 380.845C231.089 380.589 231.384 380.404 231.712 380.31C231.905 380.245 232.109 380.22 232.312 380.236C232.515 380.252 232.712 380.309 232.893 380.404C233.045 380.523 232.986 380.701 232.808 380.803C232.631 380.901 232.442 380.978 232.247 381.032C231.915 381.144 231.574 381.229 231.228 381.287C230.608 381.431 230.234 381.431 230.234 381.431Z" fill="#0D395A"/>
<path d="M230.49 381.507C230.614 381.301 230.657 381.055 230.608 380.819C230.584 380.561 230.496 380.313 230.354 380.097C230.269 379.944 230.147 379.816 229.998 379.725C229.849 379.634 229.679 379.584 229.504 379.579C229.404 379.601 229.315 379.661 229.257 379.746C229.199 379.831 229.175 379.936 229.19 380.038C229.213 380.194 229.268 380.345 229.351 380.479C229.478 380.699 229.633 380.901 229.81 381.082C229.962 381.261 230.154 381.4 230.371 381.49C230.371 381.49 230.175 381.312 229.912 380.989C229.754 380.807 229.617 380.607 229.504 380.394C229.368 380.182 229.284 379.808 229.504 379.766C229.725 379.723 230.005 379.995 230.15 380.19C230.286 380.384 230.378 380.604 230.422 380.836C230.462 381.057 230.485 381.282 230.49 381.507V381.507Z" fill="#0D395A"/>
<path d="M213.877 380.258C213.877 380.258 214.31 380.258 215.006 380.309C215.911 380.42 216.765 380.786 217.47 381.363C218.176 381.94 218.702 382.706 218.99 383.571C219.219 384.233 219.236 384.675 219.27 384.675C219.287 384.571 219.287 384.464 219.27 384.36C219.253 384.072 219.201 383.787 219.117 383.511C218.854 382.604 218.321 381.799 217.59 381.202C216.859 380.604 215.964 380.243 215.023 380.165C214.741 380.138 214.457 380.138 214.174 380.165C214.07 380.177 213.969 380.209 213.877 380.258V380.258Z" fill="#0D395A"/>
<path d="M215.551 373.889C215.427 374.934 215.367 375.986 215.373 377.039C215.311 378.092 215.311 379.147 215.373 380.199C215.491 379.15 215.548 378.095 215.542 377.039C215.605 375.99 215.607 374.938 215.551 373.889V373.889Z" fill="#0D395A"/>
<path d="M221.24 383.29C221.975 383.464 222.728 383.547 223.482 383.536C224.236 383.588 224.993 383.537 225.733 383.384C225.733 383.333 224.722 383.384 223.491 383.384C222.259 383.384 221.249 383.231 221.24 383.29Z" fill="#0D395A"/>
<path d="M218.233 383.248C218.191 383.248 218.31 383.46 218.412 383.689C218.514 383.919 218.565 384.123 218.616 384.123C218.667 384.123 218.701 383.885 218.616 383.613C218.531 383.341 218.267 383.205 218.233 383.248Z" fill="#0D395A"/>
<path d="M217.113 381.821C217.113 381.821 217.173 382.017 217.334 382.178C217.495 382.339 217.648 382.441 217.682 382.407C217.716 382.373 217.623 382.212 217.47 382.051C217.317 381.889 217.156 381.779 217.113 381.821Z" fill="#0D395A"/>
<path d="M215.499 381.151C215.499 381.201 215.711 381.201 215.941 381.286C216.17 381.371 216.323 381.49 216.365 381.456C216.408 381.422 216.28 381.21 216 381.108C215.72 381.006 215.482 381.108 215.499 381.151Z" fill="#0D395A"/>
<path d="M214.344 380.837C214.344 380.879 214.412 380.964 214.539 381.015C214.666 381.066 214.785 381.066 214.802 381.015C214.819 380.964 214.734 380.888 214.616 380.837C214.497 380.786 214.369 380.786 214.344 380.837Z" fill="#0D395A"/>
<path d="M239.602 224.108L233.708 378.093L209.775 378.594L213.75 245.179L186.844 379.613H164.092L193.401 224.423L239.602 224.108Z" fill="#0D395A"/>
<path d="M219.263 229.713C219.244 230.569 219.153 231.421 218.991 232.261C218.77 233.816 218.43 235.973 218.031 238.334C217.878 239.463 217.651 240.581 217.352 241.68C217.08 242.604 216.535 243.424 215.789 244.032C215.287 244.439 214.686 244.706 214.048 244.805C213.82 244.864 213.58 244.864 213.352 244.805C214.176 244.685 214.951 244.341 215.594 243.812C216.262 243.214 216.743 242.435 216.978 241.57C217.252 240.484 217.464 239.384 217.615 238.274C218.014 235.905 218.396 233.765 218.694 232.219C218.816 231.37 219.007 230.532 219.263 229.713V229.713Z" fill="#0D395A"/>
<path d="M214.285 230.452C214.336 230.452 214.14 230.741 214.285 231.14C214.314 231.249 214.364 231.35 214.432 231.439C214.501 231.528 214.586 231.603 214.684 231.658C214.806 231.702 214.938 231.711 215.066 231.686C215.193 231.66 215.311 231.601 215.408 231.514C215.504 231.427 215.576 231.316 215.614 231.192C215.653 231.067 215.657 230.935 215.627 230.809C215.587 230.704 215.526 230.609 215.447 230.53C215.367 230.451 215.272 230.39 215.168 230.35C214.777 230.18 214.505 230.35 214.48 230.291C214.455 230.231 214.701 229.943 215.261 230.062C215.422 230.101 215.571 230.176 215.698 230.282C215.824 230.388 215.925 230.522 215.992 230.673C216.062 230.874 216.069 231.092 216.012 231.297C215.954 231.503 215.834 231.685 215.669 231.82C215.515 231.965 215.32 232.06 215.11 232.09C214.9 232.121 214.686 232.085 214.497 231.989C214.355 231.904 214.236 231.786 214.147 231.646C214.059 231.506 214.004 231.347 213.987 231.183C213.928 230.622 214.268 230.401 214.285 230.452Z" fill="#0D395A"/>
<path d="M201.435 232.653C201.154 231.962 201.05 231.213 201.13 230.472C201.21 229.731 201.472 229.021 201.893 228.406C202.004 228.457 201.656 229.366 201.545 230.529C201.435 231.693 201.554 232.619 201.435 232.653Z" fill="#0D395A"/>
<path d="M204.314 232.465C203.963 231.768 203.841 230.977 203.965 230.206C203.954 229.422 204.186 228.654 204.628 228.006C204.738 228.006 204.467 229.017 204.39 230.232C204.404 230.977 204.378 231.723 204.314 232.465V232.465Z" fill="#0D395A"/>
<path d="M229.045 233.094C229.022 232.321 229.067 231.548 229.181 230.784C229.152 230.009 229.186 229.234 229.283 228.465C229.602 229.2 229.71 230.008 229.597 230.801C229.625 231.601 229.435 232.394 229.045 233.094V233.094Z" fill="#0D395A"/>
<path d="M232.172 232.924C232.053 232.873 232.426 231.863 232.511 230.572C232.596 229.281 232.375 228.236 232.511 228.202C232.852 228.954 233.001 229.78 232.945 230.604C232.889 231.428 232.629 232.225 232.189 232.924H232.172Z" fill="#0D395A"/>
<path d="M206.284 160.046L221.061 158.866C221.155 157.167 221.061 150.475 221.061 150.475C221.061 150.475 227.21 149.515 227.287 143.375C227.363 137.234 226.293 123.119 226.293 123.119C222.794 121.603 218.952 121.052 215.168 121.522C211.383 121.993 207.794 123.468 204.772 125.794L203.863 126.499L206.284 160.046Z" fill="#FFBE9D"/>
<path d="M221.011 150.425C218.174 150.482 215.385 149.69 213.002 148.149C213.002 148.149 214.896 152.573 221.028 152.021L221.011 150.425Z" fill="#EB996E"/>
<path d="M223.84 132.75C223.84 132.975 223.751 133.191 223.591 133.351C223.432 133.51 223.216 133.599 222.991 133.599C222.879 133.607 222.767 133.593 222.661 133.558C222.555 133.523 222.457 133.467 222.372 133.393C222.288 133.32 222.219 133.231 222.169 133.13C222.119 133.03 222.09 132.921 222.082 132.81C222.082 132.584 222.171 132.368 222.331 132.209C222.49 132.05 222.706 131.96 222.931 131.96C223.043 131.952 223.155 131.966 223.261 132.002C223.367 132.037 223.465 132.093 223.55 132.166C223.634 132.24 223.703 132.329 223.753 132.429C223.803 132.529 223.833 132.638 223.84 132.75Z" fill="#0D395A"/>
<path d="M225.07 131.74C224.959 131.851 224.297 131.358 223.371 131.358C222.445 131.358 221.732 131.834 221.63 131.723C221.528 131.613 221.69 131.46 221.995 131.239C222.406 130.96 222.892 130.812 223.388 130.814C223.879 130.813 224.358 130.967 224.755 131.256C225.027 131.502 225.121 131.74 225.07 131.74Z" fill="#0D395A"/>
<path d="M214.301 132.971C214.301 133.196 214.212 133.412 214.052 133.572C213.893 133.731 213.677 133.82 213.452 133.82C213.34 133.828 213.228 133.814 213.122 133.779C213.016 133.744 212.918 133.688 212.833 133.614C212.749 133.541 212.68 133.452 212.63 133.351C212.58 133.251 212.551 133.142 212.543 133.031C212.543 132.805 212.632 132.589 212.792 132.43C212.951 132.271 213.167 132.181 213.392 132.181C213.504 132.173 213.616 132.187 213.722 132.223C213.828 132.258 213.926 132.314 214.011 132.387C214.095 132.461 214.164 132.55 214.214 132.65C214.264 132.75 214.293 132.859 214.301 132.971Z" fill="#0D395A"/>
<path d="M215.788 131.935C215.678 132.053 215.016 131.561 214.09 131.561C213.164 131.561 212.451 132.036 212.349 131.918C212.247 131.799 212.408 131.663 212.714 131.442C213.121 131.156 213.609 131.007 214.107 131.017C214.598 131.015 215.077 131.17 215.474 131.459C215.746 131.68 215.848 131.884 215.788 131.935Z" fill="#0D395A"/>
<path d="M219.22 138.942C219.717 138.788 220.23 138.694 220.749 138.662C220.995 138.662 221.225 138.594 221.259 138.424C221.28 138.175 221.224 137.926 221.097 137.71C220.876 137.144 220.639 136.533 220.384 135.876C219.724 134.322 219.19 132.717 218.787 131.078C219.572 132.577 220.236 134.136 220.774 135.74C221.012 136.377 221.233 136.997 221.454 137.583C221.604 137.876 221.646 138.213 221.573 138.534C221.538 138.62 221.483 138.697 221.414 138.759C221.345 138.82 221.263 138.866 221.174 138.891C221.041 138.929 220.904 138.949 220.766 138.95C220.252 139.012 219.733 139.009 219.22 138.942Z" fill="#0D395A"/>
<path d="M216.476 139.595C216.629 139.595 216.629 140.606 217.504 141.336C218.379 142.067 219.474 141.956 219.483 142.092C219.491 142.228 219.237 142.296 218.778 142.304C218.179 142.314 217.596 142.113 217.13 141.735C216.669 141.373 216.365 140.847 216.281 140.266C216.256 139.841 216.366 139.587 216.476 139.595Z" fill="#0D395A"/>
<path d="M216.035 128.24C215.941 128.495 214.998 128.367 213.894 128.503C212.79 128.639 211.89 128.945 211.737 128.707C211.678 128.597 211.831 128.359 212.187 128.113C212.67 127.807 213.216 127.615 213.784 127.552C214.352 127.488 214.927 127.555 215.465 127.747C215.873 127.909 216.077 128.113 216.035 128.24Z" fill="#0D395A"/>
<path d="M224.722 129.031C224.56 129.243 223.872 129.031 223.125 129.031C222.378 129.031 221.681 129.175 221.528 128.946C221.375 128.717 221.528 128.623 221.859 128.42C222.245 128.169 222.7 128.047 223.159 128.071C223.617 128.081 224.061 128.229 224.433 128.496C224.705 128.7 224.798 128.921 224.722 129.031Z" fill="#0D395A"/>
<path d="M204.586 132.878C204.484 132.835 200.339 131.629 200.501 135.833C200.662 140.037 204.824 139.035 204.832 138.916C204.841 138.797 204.586 132.878 204.586 132.878Z" fill="#FFBE9D"/>
<path d="M203.525 137.363C203.525 137.363 203.457 137.414 203.338 137.473C203.162 137.545 202.963 137.545 202.786 137.473C202.517 137.305 202.297 137.069 202.148 136.788C201.999 136.508 201.926 136.194 201.937 135.876C201.913 135.514 201.971 135.151 202.107 134.815C202.142 134.683 202.208 134.562 202.3 134.462C202.392 134.361 202.506 134.284 202.634 134.237C202.717 134.213 202.807 134.219 202.887 134.253C202.968 134.287 203.034 134.347 203.075 134.424C203.135 134.543 203.075 134.628 203.135 134.636C203.194 134.645 203.22 134.56 203.186 134.39C203.156 134.285 203.094 134.193 203.007 134.127C202.887 134.047 202.742 134.013 202.6 134.033C202.428 134.073 202.27 134.157 202.141 134.276C202.011 134.395 201.915 134.545 201.861 134.713C201.689 135.082 201.614 135.488 201.64 135.893C201.63 136.268 201.733 136.637 201.934 136.953C202.135 137.269 202.426 137.518 202.769 137.668C202.882 137.698 203 137.702 203.115 137.68C203.23 137.658 203.338 137.61 203.432 137.541C203.525 137.465 203.542 137.371 203.525 137.363Z" fill="#EB996E"/>
<path d="M228.587 117.811C228.139 116.926 227.495 116.155 226.703 115.558C225.911 114.96 224.993 114.552 224.019 114.364C223.045 114.177 222.041 114.214 221.084 114.475C220.127 114.735 219.242 115.211 218.498 115.866C218.031 114.936 217.344 114.135 216.495 113.532C215.647 112.929 214.663 112.544 213.631 112.41C212.599 112.276 211.55 112.397 210.576 112.762C209.601 113.128 208.732 113.727 208.043 114.508C206.862 115.849 206.251 117.658 204.875 118.754C203.678 119.731 202.064 120.053 200.858 121.013C200.192 121.547 199.687 122.254 199.397 123.056C199.107 123.859 199.044 124.726 199.215 125.562C199.387 126.398 199.785 127.17 200.367 127.794C200.949 128.418 201.692 128.869 202.514 129.098C202.212 129.703 202.036 130.362 201.996 131.037C201.957 131.711 202.055 132.386 202.284 133.022C202.514 133.657 202.87 134.239 203.331 134.733C203.793 135.226 204.35 135.621 204.968 135.893L205.58 135.638C206.724 134.337 207.456 132.725 207.682 131.007C207.909 129.29 207.621 127.544 206.854 125.99C206.927 125.994 207.001 125.994 207.075 125.99C208.131 126.579 209.369 126.756 210.549 126.487C211.728 126.217 212.766 125.519 213.461 124.529C214.313 125.125 215.317 125.465 216.355 125.509C217.394 125.553 218.423 125.298 219.321 124.775C219.573 124.584 219.863 124.448 220.171 124.376C220.56 124.383 220.939 124.497 221.266 124.708C222.178 125.2 223.216 125.407 224.247 125.302C224.722 125.244 225.175 125.067 225.564 124.788C225.953 124.509 226.265 124.137 226.472 123.705H226.549C227.136 123.571 227.676 123.279 228.108 122.859C228.541 122.44 228.851 121.91 229.003 121.327C229.309 120.145 229.161 118.89 228.587 117.811V117.811Z" fill="#0D395A"/>
<path d="M237.913 191.563L238.457 163.876C233.539 159.043 230.915 157.6 224.07 156.793L222.21 156.58L221.624 152.02L204.842 151.069L205.691 156.487C203.262 156.589 201.241 157.336 199.177 157.735C192.655 158.984 187.958 163.731 186.659 168.122C185.58 171.732 178.692 198.493 178.692 198.493L177.291 206.57L192.697 200.981V206.799V228.167H239.408C239.569 223.071 237.913 191.563 237.913 191.563Z" fill="#3B46E7"/>
<g opacity="0.2">
<path opacity="0.2" d="M237.913 191.563L238.457 163.876C233.539 159.043 230.915 157.6 224.07 156.793L222.21 156.58L221.624 152.02L204.842 151.069L205.691 156.487C203.262 156.589 201.241 157.336 199.177 157.735C192.655 158.984 187.958 163.731 186.659 168.122C185.58 171.732 178.692 198.493 178.692 198.493L177.291 206.57L192.697 200.981V206.799V228.167H239.408C239.569 223.071 237.913 191.563 237.913 191.563Z" fill="black"/>
</g>
<path d="M184.305 198.876L207.346 195.607L211.728 203.454L190.309 213.11C189.115 213.658 187.818 213.947 186.505 213.96V213.96C184.666 213.955 182.87 213.402 181.346 212.372C179.823 211.342 178.641 209.881 177.952 208.176L177.256 206.477L184.305 198.876Z" fill="#3B46E7"/>
<g opacity="0.2">
<path opacity="0.2" d="M184.305 198.876L207.346 195.607L211.728 203.454L190.309 213.11C189.115 213.658 187.818 213.947 186.505 213.96V213.96C184.666 213.955 182.87 213.402 181.346 212.372C179.823 211.342 178.641 209.881 177.952 208.176L177.256 206.477L184.305 198.876Z" fill="black"/>
</g>
<path d="M231.389 158.484C231.389 158.484 237.903 160.7 240.638 166.977C242.421 171.07 245.046 190.757 245.046 190.757L248.349 197.135C249.144 198.664 249.558 200.363 249.555 202.086V203.063C249.558 205.538 248.706 207.938 247.143 209.857C246.237 210.972 245.116 211.894 243.847 212.568C242.578 213.242 241.186 213.654 239.755 213.781C236.451 214.078 232.459 214.205 231.61 213.237C230.107 211.539 227.848 206.893 227.848 206.893L237.47 201.797L233.326 194.154L231.389 158.484Z" fill="#3B46E7"/>
<g opacity="0.2">
<path opacity="0.2" d="M231.389 158.484C231.389 158.484 237.903 160.7 240.638 166.977C242.421 171.07 245.046 190.757 245.046 190.757L248.349 197.135C249.144 198.664 249.558 200.363 249.555 202.086V203.063C249.558 205.538 248.706 207.938 247.143 209.857C246.237 210.972 245.116 211.894 243.847 212.568C242.578 213.242 241.186 213.654 239.755 213.781C236.451 214.078 232.459 214.205 231.61 213.237C230.107 211.539 227.848 206.893 227.848 206.893L237.47 201.797L233.326 194.154L231.389 158.484Z" fill="black"/>
</g>
<path d="M191.914 212.423C191.914 212.423 192.033 212.338 192.288 212.21L193.392 211.675L197.528 209.739L211.643 203.293L211.55 203.59L208.849 198.749L207.15 195.743L207.354 195.845L190.47 197.501L185.459 197.951L184.101 198.053C183.943 198.077 183.783 198.077 183.625 198.053C183.778 198.011 183.934 197.983 184.092 197.968L185.442 197.798L190.445 197.221L207.329 195.437H207.465L207.532 195.556L209.231 198.562L211.923 203.403L212.034 203.599L211.83 203.692L197.655 210.002L193.468 211.82L192.33 212.295C192.196 212.351 192.056 212.393 191.914 212.423Z" fill="#0D395A"/>
<path d="M196.007 196.6C195.888 196.6 195.795 192.48 195.795 187.402C195.795 182.323 195.888 178.204 196.007 178.204C196.126 178.204 196.22 182.323 196.22 187.402C196.22 192.48 196.092 196.6 196.007 196.6Z" fill="#0D395A"/>
<path d="M235.67 202.757C235.67 202.757 235.917 202.681 236.367 202.647C237.017 202.586 237.673 202.623 238.312 202.757C238.779 202.857 239.204 203.101 239.526 203.454C239.863 203.876 240.083 204.38 240.163 204.914C240.268 205.504 240.215 206.11 240.01 206.672C239.778 207.274 239.373 207.794 238.847 208.167C237.828 208.789 236.692 209.194 235.509 209.356C234.566 209.539 233.608 209.633 232.647 209.636C231.759 209.712 230.867 209.557 230.057 209.186C230.913 209.318 231.781 209.369 232.647 209.339C233.584 209.295 234.516 209.172 235.433 208.974C236.554 208.804 237.63 208.415 238.6 207.828C239.043 207.511 239.389 207.077 239.598 206.574C239.806 206.071 239.87 205.52 239.781 204.982C239.719 204.51 239.541 204.061 239.263 203.674C238.99 203.368 238.632 203.15 238.235 203.046C237.624 202.893 236.997 202.813 236.367 202.808C236.134 202.818 235.9 202.801 235.67 202.757V202.757Z" fill="#0D395A"/>
<path d="M239.492 213.891C238.942 214.057 238.366 214.124 237.793 214.086C236.436 214.13 235.083 213.907 233.81 213.433C233.107 213.167 232.441 212.81 231.831 212.371C231.336 211.999 230.92 211.531 230.608 210.995C230.29 210.525 230.087 209.987 230.014 209.424C230.082 209.424 230.302 210.001 230.863 210.834C231.19 211.311 231.598 211.728 232.069 212.065C232.663 212.462 233.301 212.787 233.971 213.033C235.199 213.491 236.492 213.746 237.802 213.789C238.367 213.783 238.932 213.817 239.492 213.891V213.891Z" fill="#0D395A"/>
<path d="M244.095 193.933C243.763 194.427 243.382 194.885 242.957 195.301C242.218 196.107 241.173 197.212 240.001 198.409C238.829 199.607 237.759 200.685 236.961 201.441C236.561 201.883 236.111 202.277 235.619 202.613C235.939 202.11 236.318 201.648 236.749 201.237C237.488 200.388 238.532 199.318 239.696 198.12C241.053 196.614 242.524 195.214 244.095 193.933V193.933Z" fill="#0D395A"/>
<path d="M233.597 189.636C233.384 187.892 233.313 186.134 233.384 184.379C233.313 182.621 233.384 180.86 233.597 179.113C233.809 180.86 233.88 182.621 233.809 184.379C233.88 186.134 233.809 187.892 233.597 189.636V189.636Z" fill="#0D395A"/>
<path d="M237.029 162.051C237.029 162.17 226.659 162.272 213.869 162.272C201.079 162.272 190.709 162.17 190.709 162.051C190.709 161.932 201.079 161.83 213.869 161.83C226.659 161.83 237.029 161.924 237.029 162.051Z" fill="#FAFAFA"/>
<path d="M221.751 156.743C219.092 156.949 216.424 157.008 213.759 156.921C211.095 156.982 208.429 156.892 205.775 156.649C208.432 156.449 211.096 156.393 213.759 156.48C216.425 156.423 219.093 156.511 221.751 156.743V156.743Z" fill="#0D395A"/>
<path d="M242.065 171.41C242.065 171.529 229.478 171.631 213.945 171.631C198.411 171.631 185.816 171.529 185.816 171.41C185.816 171.291 198.411 171.181 213.945 171.181C229.478 171.181 242.065 171.283 242.065 171.41Z" fill="#FAFAFA"/>
<path d="M243.806 180.999C243.806 181.126 230.217 181.22 213.41 181.22C196.602 181.22 183.014 181.126 183.014 180.999C183.014 180.871 196.602 180.778 213.41 180.778C230.217 180.778 243.806 180.905 243.806 180.999Z" fill="#FAFAFA"/>
<path d="M244.894 190.383C244.894 190.502 230.532 190.604 212.816 190.604C195.1 190.604 180.738 190.502 180.738 190.383C180.738 190.264 195.1 190.162 212.816 190.162C230.532 190.162 244.894 190.256 244.894 190.383Z" fill="#FAFAFA"/>
<path d="M249.233 205.628C249.233 205.747 233.275 205.849 213.563 205.849C193.851 205.849 177.893 205.747 177.893 205.628C177.893 205.51 193.851 205.408 213.563 205.408C233.275 205.408 249.233 205.493 249.233 205.628Z" fill="#FAFAFA"/>
<path d="M238.998 216.303C238.998 216.422 228.467 216.524 215.482 216.524C202.496 216.524 191.965 216.422 191.965 216.303C191.965 216.184 202.488 216.083 215.482 216.083C228.476 216.083 238.998 216.176 238.998 216.303Z" fill="#FAFAFA"/>
<path d="M228.111 191.835L227.61 191.462C226.328 190.499 224.859 189.815 223.297 189.454C221.735 189.092 220.115 189.062 218.54 189.364V189.364C215.948 189.861 213.521 190.999 211.482 192.676L207.533 195.929L211.729 203.453L214.591 199.453C214.591 199.453 217.258 203.071 217.733 202.689C218.156 202.238 218.508 201.725 218.778 201.169L216.875 198.502L221.445 199.453L228.111 196.404L225.249 192.786L228.111 193.738V191.835Z" fill="#FFBE9D"/>
<path d="M221.07 191.147L206.402 208.906L207.532 210.121L231.329 206.494L243.134 188.736L242.038 187.75L221.07 191.147Z" fill="#0D395A"/>
<path d="M236.63 195.835C236.173 195.834 235.726 195.971 235.348 196.228C234.971 196.486 234.68 196.853 234.515 197.279C234.258 198.166 233.758 198.963 233.071 199.581C232.01 200.158 230.184 200.617 229.224 200.15C228.264 199.682 224.417 196.217 223.746 196.599C223.075 196.982 222.498 197.848 223.169 198.621C223.84 199.394 227.415 201.695 226.727 202.468C226.039 203.241 218.548 199.852 217.385 200.15C216.221 200.447 215.559 201.152 216.23 201.619C216.901 202.086 221.997 204.005 222.285 204.676C222.285 204.676 214.591 202.655 214.302 203.139C214.013 203.623 213.538 204.387 214.302 204.676C215.066 204.965 221.708 206.698 222.285 206.986C223.239 207.378 224.233 207.663 225.249 207.836C226.299 208.108 227.333 208.434 228.349 208.812C229.905 209.357 231.606 209.312 233.131 208.685L233.912 208.371C234.503 208.129 235.004 207.708 235.343 207.167C235.683 206.627 235.845 205.993 235.806 205.356L235.653 202.74L236.502 200.574L236.63 195.835Z" fill="#FFBE9D"/>
<path d="M243.178 188.896C243.035 188.951 242.887 188.988 242.736 189.007L241.462 189.228L236.774 189.983L229.81 191.045L225.699 191.665C224.248 191.824 222.869 192.383 221.716 193.279C220.658 194.308 219.689 195.424 218.82 196.616C217.911 197.737 217.045 198.825 216.213 199.861L211.788 205.339L208.773 209.024L207.924 210.01C207.831 210.129 207.726 210.237 207.609 210.332C207.609 210.332 207.677 210.197 207.856 209.959L208.629 208.923L211.533 205.169L215.89 199.623L218.438 196.362C219.325 195.147 220.313 194.011 221.393 192.964C222.605 192.022 224.054 191.434 225.58 191.266L229.699 190.671L236.681 189.695L241.394 189.075L242.677 188.93C242.84 188.891 243.01 188.88 243.178 188.896V188.896Z" fill="#0D395A"/>
<path d="M232.044 192.786C231.79 192.918 231.564 193.1 231.382 193.321C231.299 193.438 231.254 193.577 231.254 193.72C231.254 193.864 231.299 194.003 231.382 194.12C231.518 194.239 231.693 194.305 231.874 194.305C232.055 194.305 232.23 194.239 232.367 194.12C232.558 193.984 232.692 193.781 232.74 193.551C232.765 193.437 232.76 193.318 232.726 193.207C232.692 193.095 232.63 192.994 232.545 192.914C232.453 192.842 232.339 192.803 232.222 192.803C232.106 192.803 231.992 192.842 231.9 192.914" fill="#FAFAFA"/>
<path d="M162.571 152.854L158.257 145.211C160.925 140.878 161.876 135.703 160.922 130.704C159.969 125.705 157.18 121.244 153.104 118.197C149.028 115.15 143.96 113.738 138.896 114.239C133.832 114.739 129.138 117.116 125.737 120.902C122.336 124.688 120.475 129.609 120.518 134.697C120.562 139.786 122.507 144.675 125.972 148.402C129.437 152.129 134.171 154.425 139.243 154.838C144.315 155.252 149.359 153.754 153.382 150.638V150.638L162.571 152.854Z" fill="#3B46E7"/>
<path d="M133.867 132.131C133.867 130.297 134.971 129.133 136.542 129.133C138.114 129.133 139.201 130.28 139.201 132.131C139.201 133.983 138.105 135.138 136.542 135.138C134.98 135.138 133.867 133.974 133.867 132.131ZM137.664 132.131C137.664 130.968 137.213 130.433 136.542 130.433C135.872 130.433 135.421 131.01 135.421 132.131C135.421 133.252 135.88 133.83 136.542 133.83C137.205 133.83 137.664 133.303 137.664 132.131ZM142.946 129.252H144.772L137.434 140.149H135.608L142.946 129.252ZM141.18 137.27C141.18 135.435 142.284 134.263 143.838 134.263C145.392 134.263 146.505 135.435 146.505 137.27C146.505 139.104 145.401 140.276 143.838 140.276C142.275 140.276 141.18 139.104 141.18 137.27V137.27ZM144.959 137.27C144.959 136.115 144.509 135.571 143.838 135.571C143.167 135.571 142.717 136.132 142.717 137.27C142.717 138.408 143.175 138.968 143.838 138.968C144.5 138.968 144.959 138.425 144.959 137.27V137.27Z" fill="white"/>
</svg>
