<svg width="506" height="340" viewBox="0 0 506 340" fill="none" xmlns="http://www.w3.org/2000/svg">
<path d="M468.277 22.7914H181.119V215.12H468.277V22.7914Z" fill="#FAFAFA"/>
<path d="M468.277 22.7914H181.119V42.0007H468.277V22.7914Z" fill="#EBEBEB"/>
<path d="M193.559 32.4015C193.599 32.8737 193.495 33.3468 193.261 33.759C193.028 34.1712 192.675 34.5033 192.25 34.7121C191.824 34.9208 191.346 34.9963 190.877 34.9288C190.408 34.8613 189.97 34.654 189.621 34.3338C189.272 34.0137 189.027 33.5956 188.919 33.1342C188.811 32.6729 188.845 32.1897 189.016 31.7479C189.187 31.306 189.487 30.926 189.878 30.6574C190.268 30.3889 190.73 30.2444 191.204 30.2428C191.501 30.228 191.798 30.2723 192.077 30.3732C192.357 30.474 192.614 30.6293 192.833 30.8301C193.052 31.0309 193.229 31.2732 193.354 31.543C193.478 31.8127 193.548 32.1046 193.559 32.4015V32.4015Z" fill="#FAFAFA"/>
<path d="M201.042 32.4015C201.081 32.8737 200.977 33.3468 200.744 33.759C200.51 34.1712 200.158 34.5033 199.732 34.7121C199.307 34.9208 198.828 34.9963 198.359 34.9288C197.891 34.8613 197.453 34.654 197.104 34.3338C196.754 34.0137 196.51 33.5956 196.402 33.1342C196.294 32.6729 196.328 32.1897 196.499 31.7479C196.67 31.306 196.97 30.926 197.36 30.6574C197.751 30.3889 198.213 30.2444 198.687 30.2428C198.984 30.228 199.28 30.2723 199.56 30.3732C199.839 30.474 200.096 30.6293 200.315 30.8301C200.534 31.0309 200.711 31.2732 200.836 31.543C200.961 31.8127 201.031 32.1046 201.042 32.4015V32.4015Z" fill="#FAFAFA"/>
<path d="M208.54 32.4015C208.579 32.8737 208.475 33.3468 208.242 33.759C208.008 34.1712 207.656 34.5033 207.23 34.7121C206.805 34.9208 206.326 34.9963 205.858 34.9288C205.389 34.8613 204.951 34.654 204.602 34.3338C204.252 34.0137 204.008 33.5956 203.9 33.1342C203.792 32.6729 203.826 32.1897 203.997 31.7479C204.168 31.306 204.468 30.926 204.858 30.6574C205.249 30.3889 205.711 30.2444 206.185 30.2428C206.482 30.228 206.778 30.2723 207.058 30.3732C207.337 30.474 207.594 30.6293 207.813 30.8301C208.032 31.0309 208.209 31.2732 208.334 31.543C208.459 31.8127 208.529 32.1046 208.54 32.4015V32.4015Z" fill="#FAFAFA"/>
<path d="M443.242 240.2C428.232 229.72 424.833 210.26 425.422 192.77C425.524 189.849 425.202 186.772 426.591 184.205C427.981 181.638 431.223 179.895 433.837 181.128C436.004 182.148 436.977 184.668 438.163 186.756C439.783 189.537 442.156 191.804 445.008 193.295C446.868 194.261 449.168 194.866 451.005 193.837C453.525 192.448 453.824 188.97 453.8 186.066C453.769 180.649 453.735 175.235 453.698 169.824C453.698 166.919 453.698 163.96 454.577 161.188C455.456 158.417 457.474 155.874 460.237 155.105C463 154.335 466.415 155.89 467.004 158.763C467.113 159.966 467.139 161.175 467.082 162.382C467.169 163.583 467.726 164.917 468.872 165.255C470.018 165.592 471.227 164.768 472.059 163.92C475.058 160.992 477.091 157.208 478.991 153.456C480.891 149.704 482.736 145.849 485.46 142.654C488.184 139.459 491.944 136.924 496.097 136.688C500.249 136.453 504.692 139.043 505.744 143.102C506.796 147.16 504.41 151.352 501.819 154.665C497.959 159.579 493.412 163.912 488.317 167.531C487.406 168.175 486.409 168.882 486.064 169.957C485.428 171.896 487.265 173.819 489.204 174.455C491.371 175.17 493.718 174.95 495.987 175.24C498.255 175.531 500.697 176.504 501.56 178.647C502.746 181.614 500.265 184.723 497.824 186.764C492.929 190.845 487.369 194.053 481.385 196.247C479.25 197.032 477.005 197.715 475.278 199.214C473.551 200.714 472.523 203.328 473.559 205.377C474.595 207.426 477.272 208.077 479.509 207.661C481.746 207.245 483.748 206.028 485.883 205.228C489.871 203.72 495.029 203.995 497.588 207.441C499.268 209.71 499.409 212.866 498.561 215.574C497.588 218.236 496.091 220.676 494.158 222.749C487.768 230.254 479.572 236.299 470.317 239.501C461.061 242.704 452.481 243.583 443.281 240.216" fill="#3B46E7"/>
<path d="M443.014 253.191C443.812 245.08 445.389 237.065 447.724 229.256C450.627 219.727 454.077 210.372 458.055 201.239L461.14 194.033C462.16 191.678 463.165 189.323 464.28 187.093C466.457 182.816 468.868 178.662 471.502 174.651C473.99 170.804 476.487 167.24 478.85 163.927C481.212 160.615 483.489 157.584 485.679 154.9C489.129 150.637 492.911 146.655 496.991 142.991C498.428 141.704 499.574 140.73 500.359 140.087L501.254 139.356L501.568 139.121C501.484 139.225 501.39 139.32 501.285 139.404L500.422 140.189C499.637 140.856 498.546 141.853 497.133 143.164C493.13 146.867 489.409 150.863 486.001 155.12C483.842 157.812 481.597 160.866 479.242 164.179C476.887 167.491 474.414 171.063 471.941 174.91C469.338 178.913 466.956 183.057 464.806 187.321C463.691 189.542 462.694 191.858 461.666 194.229L458.581 201.435C454.613 210.55 451.158 219.88 448.234 229.382C445.878 237.15 444.254 245.121 443.383 253.191" fill="#0D395A"/>
<path d="M464.477 187.062C464.344 186.658 464.249 186.243 464.195 185.821C464.046 185.036 463.865 183.851 463.661 182.406C463.245 179.51 462.813 175.498 462.358 171.071C461.903 166.643 461.416 162.648 460.96 159.775C460.741 158.338 460.544 157.168 460.403 156.368C460.305 155.956 460.249 155.535 460.238 155.112C460.407 155.502 460.531 155.91 460.607 156.328C460.811 157.113 461.063 158.275 461.329 159.712C461.879 162.577 462.428 166.581 462.899 171.016C463.37 175.451 463.739 179.337 464.038 182.352C464.187 183.717 464.313 184.871 464.407 185.79C464.479 186.21 464.503 186.636 464.477 187.062V187.062Z" fill="#0D395A"/>
<path d="M501.818 180.083C501.326 180.181 500.827 180.239 500.326 180.256C499.368 180.342 497.971 180.46 496.275 180.656C492.853 181.025 488.151 181.7 482.985 182.674C477.82 183.647 473.196 184.746 469.868 185.625C468.203 186.057 466.861 186.41 465.943 186.701C465.468 186.865 464.979 186.986 464.482 187.062C464.929 186.829 465.397 186.64 465.88 186.497C466.79 186.183 468.117 185.712 469.805 185.256C473.11 184.275 477.749 183.129 482.922 182.116C487.336 181.27 491.791 180.649 496.268 180.256C497.987 180.107 499.408 180.044 500.35 180.028C500.84 180 501.331 180.018 501.818 180.083V180.083Z" fill="#0D395A"/>
<path d="M448.217 228.548C448.217 228.548 448.107 228.399 447.958 228.093C447.809 227.787 447.573 227.308 447.322 226.743C446.773 225.565 446.019 223.846 445.116 221.703C443.319 217.432 441.019 211.443 438.561 204.801C436.104 198.16 433.851 192.155 432.156 187.853L430.123 182.75L429.573 181.361C429.5 181.201 429.447 181.032 429.416 180.859C429.519 180.999 429.604 181.152 429.667 181.314C429.84 181.683 430.052 182.099 430.311 182.664C430.86 183.842 431.606 185.561 432.509 187.704C434.307 191.982 436.615 197.964 439.064 204.613C441.513 211.262 443.774 217.252 445.47 221.561L447.511 226.656L448.052 228.046C448.13 228.205 448.185 228.374 448.217 228.548Z" fill="#0D395A"/>
<path d="M497.83 212.558C497.674 212.647 497.508 212.716 497.335 212.762L495.899 213.241L490.584 214.968C486.094 216.421 479.924 218.501 473.11 220.809C466.296 223.117 460.094 225.142 455.572 226.5C453.312 227.183 451.482 227.717 450.203 228.07L448.735 228.455C448.567 228.511 448.393 228.546 448.217 228.557C448.37 228.469 448.533 228.4 448.704 228.353L450.148 227.874L455.462 226.147C459.945 224.695 466.115 222.614 472.937 220.306C479.759 217.998 485.952 215.973 490.474 214.607C492.727 213.924 494.564 213.39 495.836 213.037L497.304 212.652C497.474 212.597 497.651 212.566 497.83 212.558V212.558Z" fill="#0D395A"/>
<path d="M114.179 113.741C114.179 113.914 112.931 114.047 111.392 114.047C109.854 114.047 108.605 113.914 108.605 113.741C108.605 113.568 109.854 113.435 111.392 113.435C112.931 113.435 114.179 113.576 114.179 113.741Z" fill="#0D395A"/>
<path d="M117.132 106.165C117.305 106.165 117.446 107.429 117.446 108.991C117.446 110.553 117.305 111.817 117.132 111.817C116.96 111.817 116.826 110.553 116.826 108.991C116.826 107.429 116.967 106.165 117.132 106.165Z" fill="#0D395A"/>
<path d="M120.289 113.561C120.289 113.388 121.529 113.254 123.068 113.254C124.607 113.254 125.855 113.388 125.855 113.561C125.855 113.733 124.607 113.867 123.068 113.867C121.529 113.867 120.289 113.733 120.289 113.561Z" fill="#0D395A"/>
<path d="M117.328 121.135C117.155 121.135 117.021 119.871 117.021 118.309C117.021 116.746 117.155 115.483 117.328 115.483C117.5 115.483 117.634 116.746 117.634 118.309C117.634 119.871 117.5 121.135 117.328 121.135Z" fill="#0D395A"/>
<path d="M121.827 117.885C121.701 117.995 121.151 117.555 120.602 116.896C120.052 116.236 119.715 115.624 119.817 115.514C119.919 115.404 120.5 115.852 121.042 116.503C121.583 117.155 121.96 117.775 121.827 117.885Z" fill="#0D395A"/>
<path d="M121.568 109.297C121.693 109.415 121.324 109.98 120.783 110.553C120.241 111.126 119.66 111.488 119.534 111.338C119.409 111.189 119.778 110.655 120.319 110.082C120.861 109.509 121.45 109.18 121.568 109.297Z" fill="#0D395A"/>
<path d="M115.185 111.487C115.076 111.613 114.55 111.354 114.008 110.906C113.466 110.459 113.121 109.988 113.223 109.855C113.325 109.721 113.859 109.98 114.393 110.435C114.926 110.891 115.295 111.354 115.185 111.487Z" fill="#0D395A"/>
<path d="M114.935 115.272C115.06 115.389 114.746 115.939 114.228 116.504C113.71 117.069 113.192 117.43 113.066 117.289C112.941 117.148 113.263 116.622 113.773 116.057C114.283 115.491 114.809 115.154 114.935 115.272Z" fill="#0D395A"/>
<path d="M3.14005 197.336C2.63664 197.513 2.10028 197.574 1.57003 197.517C1.03977 197.575 0.503236 197.513 0 197.336C0.505315 197.169 1.04036 197.11 1.57003 197.164C2.09969 197.111 2.63459 197.169 3.14005 197.336V197.336Z" fill="#0D395A"/>
<path d="M4.78899 193.043C5.01922 194.098 5.01922 195.191 4.78899 196.246C4.5482 195.192 4.5482 194.097 4.78899 193.043V193.043Z" fill="#0D395A"/>
<path d="M6.60352 197.235C7.10918 197.069 7.64389 197.01 8.17354 197.063C8.70321 197.009 9.23825 197.068 9.74357 197.235C9.24033 197.412 8.7038 197.474 8.17354 197.416C7.64329 197.472 7.10711 197.411 6.60352 197.235Z" fill="#0D395A"/>
<path d="M4.92991 201.536C4.75605 201.032 4.69443 200.496 4.74936 199.966C4.69015 199.423 4.75181 198.873 4.92991 198.357C5.09865 198.875 5.15747 199.423 5.10261 199.966C5.15336 200.496 5.09458 201.03 4.92991 201.536V201.536Z" fill="#0D395A"/>
<path d="M7.48021 199.693C7.40956 199.755 7.09555 199.504 6.78155 199.135C6.46754 198.766 6.27914 198.413 6.35764 198.35C6.43614 198.288 6.74229 198.539 7.0563 198.908C7.37031 199.277 7.55086 199.63 7.48021 199.693Z" fill="#0D395A"/>
<path d="M7.33169 194.816C7.40234 194.879 7.19824 195.201 6.87638 195.531C6.55453 195.86 6.23267 196.057 6.16987 195.994C6.10707 195.931 6.30332 195.609 6.62517 195.279C6.94703 194.95 7.26104 194.746 7.33169 194.816Z" fill="#0D395A"/>
<path d="M3.71398 196.057C3.65118 196.135 3.35287 195.986 3.04671 195.727C2.74056 195.468 2.53646 195.209 2.59926 195.131C2.66206 195.052 2.96037 195.209 3.26652 195.46C3.57268 195.712 3.76893 195.986 3.71398 196.057Z" fill="#0D395A"/>
<path d="M3.56378 198.239C3.64228 198.301 3.46173 198.615 3.16342 198.937C2.86512 199.259 2.58251 199.463 2.51186 199.4C2.44121 199.338 2.61391 199.024 2.91222 198.702C3.21052 198.38 3.49313 198.144 3.56378 198.239Z" fill="#0D395A"/>
<path d="M121.552 183.323L121.732 183.763C121.89 184.14 122.121 184.483 122.412 184.77C122.703 185.057 123.049 185.283 123.428 185.435L123.899 185.631L123.444 185.812C123.062 185.97 122.714 186.201 122.422 186.494C122.13 186.786 121.898 187.133 121.74 187.515L121.615 187.837L121.418 187.437C121.075 186.707 120.457 186.143 119.699 185.867L119.283 185.718L119.825 185.451C120.498 185.124 121.033 184.567 121.332 183.881L121.552 183.323Z" fill="#0D395A"/>
<path d="M37.0851 127.345L37.2657 127.785C37.4229 128.161 37.6529 128.503 37.9426 128.789C38.2322 129.076 38.5758 129.303 38.9534 129.457L39.4244 129.645L38.977 129.834C38.5931 129.989 38.2443 130.219 37.9516 130.512C37.6589 130.805 37.4283 131.153 37.2735 131.537L37.14 131.859L36.9516 131.459C36.7811 131.096 36.5408 130.771 36.2445 130.502C35.9481 130.232 35.6016 130.024 35.2246 129.889L34.8164 129.74L35.3502 129.473C36.0262 129.149 36.5618 128.591 36.8574 127.903L37.0851 127.345Z" fill="#0D395A"/>
<path d="M434.394 60.0078H141.662C135.345 60.0078 130.225 65.1286 130.225 71.4455V257.274C130.225 263.591 135.345 268.712 141.662 268.712H434.394C440.711 268.712 445.832 263.591 445.832 257.274V71.4455C445.832 65.1286 440.711 60.0078 434.394 60.0078Z" fill="#0D395A"/>
<path d="M117.045 253.277H458.958V257.571C458.958 261.277 457.486 264.832 454.865 267.452C452.245 270.073 448.69 271.545 444.985 271.545H130.979C127.273 271.545 123.719 270.073 121.099 267.452C118.478 264.832 117.006 261.277 117.006 257.571V253.277H117.045Z" fill="#0D395A"/>
<path d="M436.476 68.3048H138.697V244.556H436.476V68.3048Z" fill="#455A64"/>
<path d="M256.91 253.277L261.157 260.029H320.857L324.798 253.277H256.91Z" fill="#455A64"/>
<path d="M428.381 74.2712H147.393C145.975 74.2712 144.826 75.4205 144.826 76.8382V241.424C144.826 242.842 145.975 243.991 147.393 243.991H428.381C429.799 243.991 430.948 242.842 430.948 241.424V76.8382C430.948 75.4205 429.799 74.2712 428.381 74.2712Z" fill="#EBEBEB"/>
<path d="M430.948 86.7063H144.826V243.992H430.948V86.7063Z" fill="#FAFAFA"/>
<path d="M168.299 80.8257C168.299 81.279 168.165 81.7222 167.913 82.0992C167.661 82.4761 167.303 82.77 166.884 82.9434C166.465 83.1169 166.005 83.1623 165.56 83.0739C165.115 82.9854 164.707 82.7671 164.386 82.4465C164.066 82.126 163.847 81.7175 163.759 81.2729C163.67 80.8282 163.716 80.3673 163.889 79.9485C164.063 79.5296 164.357 79.1716 164.734 78.9198C165.111 78.6679 165.554 78.5334 166.007 78.5334C166.615 78.5334 167.198 78.775 167.628 79.2048C168.058 79.6347 168.299 80.2177 168.299 80.8257Z" fill="#0D395A"/>
<path d="M154.444 80.8257C154.442 81.2772 154.307 81.7181 154.055 82.0927C153.803 82.4673 153.446 82.7589 153.028 82.9306C152.611 83.1023 152.152 83.1464 151.709 83.0574C151.266 82.9683 150.86 82.7502 150.541 82.4304C150.223 82.1106 150.006 81.7035 149.918 81.2606C149.831 80.8177 149.877 80.3588 150.05 79.9418C150.223 79.5249 150.516 79.1686 150.891 78.9179C151.267 78.6672 151.708 78.5334 152.159 78.5334C152.46 78.5334 152.758 78.5928 153.035 78.7081C153.313 78.8234 153.565 78.9923 153.777 79.2053C153.99 79.4183 154.158 79.671 154.272 79.9491C154.386 80.2271 154.445 80.525 154.444 80.8257V80.8257Z" fill="#0D395A"/>
<path d="M161.092 80.8257C161.091 81.2772 160.955 81.7181 160.703 82.0927C160.451 82.4673 160.094 82.7589 159.677 82.9306C159.259 83.1023 158.8 83.1464 158.357 83.0574C157.915 82.9683 157.508 82.7502 157.19 82.4304C156.871 82.1106 156.654 81.7035 156.567 81.2606C156.479 80.8177 156.525 80.3588 156.698 79.9418C156.871 79.5249 157.164 79.1686 157.539 78.9179C157.915 78.6672 158.356 78.5334 158.808 78.5334C159.108 78.5334 159.406 78.5928 159.684 78.7081C159.961 78.8234 160.214 78.9923 160.426 79.2053C160.638 79.4183 160.806 79.671 160.921 79.9491C161.035 80.2271 161.093 80.525 161.092 80.8257V80.8257Z" fill="#0D395A"/>
<path d="M443.115 253.278C443.115 253.396 373.069 253.482 286.678 253.482C200.287 253.482 130.225 253.396 130.225 253.278C130.225 253.16 200.256 253.074 286.678 253.074C373.1 253.074 443.115 253.192 443.115 253.278Z" fill="#455A64"/>
<path d="M229.946 165.938H164.656V170.302H229.946V165.938Z" fill="#E0E0E0"/>
<path d="M314.28 105.296H248.99V109.661H314.28V105.296Z" fill="#E0E0E0"/>
<path d="M411.425 121.561C411.425 121.671 375.063 121.765 330.231 121.765C285.399 121.765 249.021 121.671 249.021 121.561C249.021 121.451 285.375 121.357 330.231 121.357C375.087 121.357 411.425 121.451 411.425 121.561Z" fill="#E0E0E0"/>
<path d="M411.425 131.098C411.425 131.208 375.063 131.302 330.231 131.302C285.399 131.302 249.021 131.208 249.021 131.098C249.021 130.988 285.375 130.894 330.231 130.894C375.087 130.894 411.425 130.988 411.425 131.098Z" fill="#E0E0E0"/>
<path d="M411.425 140.637C411.425 140.747 375.063 140.841 330.231 140.841C285.399 140.841 249.021 140.747 249.021 140.637C249.021 140.527 285.375 140.433 330.231 140.433C375.087 140.433 411.425 140.519 411.425 140.637Z" fill="#E0E0E0"/>
<path d="M411.425 150.174C411.425 150.284 375.063 150.378 330.231 150.378C285.399 150.378 249.021 150.284 249.021 150.174C249.021 150.064 285.375 149.97 330.231 149.97C375.087 149.97 411.425 150.056 411.425 150.174Z" fill="#E0E0E0"/>
<path d="M411.425 159.713C411.425 159.823 375.063 159.917 330.231 159.917C285.399 159.917 249.021 159.823 249.021 159.713C249.021 159.603 285.375 159.509 330.231 159.509C375.087 159.509 411.425 159.596 411.425 159.713Z" fill="#E0E0E0"/>
<path d="M312.388 169.25C312.388 169.36 298.195 169.454 280.689 169.454C263.183 169.454 248.99 169.36 248.99 169.25C248.99 169.14 263.183 169.046 280.689 169.046C298.195 169.046 312.388 169.133 312.388 169.25Z" fill="#E0E0E0"/>
<path d="M410.209 187.761C410.209 187.871 386.305 187.965 356.828 187.965C327.351 187.965 303.447 187.871 303.447 187.761C303.447 187.651 327.343 187.557 356.828 187.557C386.313 187.557 410.209 187.643 410.209 187.761Z" fill="#E0E0E0"/>
<path d="M410.209 197.881C410.209 197.998 386.305 198.085 356.828 198.085C327.351 198.085 303.447 197.998 303.447 197.881C303.447 197.763 327.343 197.676 356.828 197.676C386.313 197.676 410.209 197.771 410.209 197.881Z" fill="#E0E0E0"/>
<path d="M410.209 208.007C410.209 208.117 386.305 208.211 356.828 208.211C327.351 208.211 303.447 208.117 303.447 208.007C303.447 207.897 327.343 207.803 356.828 207.803C386.313 207.803 410.209 207.897 410.209 208.007Z" fill="#E0E0E0"/>
<path d="M410.209 218.133C410.209 218.243 386.305 218.337 356.828 218.337C327.351 218.337 303.447 218.243 303.447 218.133C303.447 218.023 327.343 217.929 356.828 217.929C386.313 217.929 410.209 218.016 410.209 218.133Z" fill="#E0E0E0"/>
<path d="M230.086 186.788C230.086 186.905 215.838 186.992 198.27 186.992C180.701 186.992 166.453 186.905 166.453 186.788C166.453 186.67 180.693 186.583 198.27 186.583C215.846 186.583 230.086 186.678 230.086 186.788Z" fill="#E0E0E0"/>
<path d="M230.086 194.739C230.086 194.849 215.838 194.943 198.27 194.943C180.701 194.943 166.453 194.849 166.453 194.739C166.453 194.629 180.693 194.535 198.27 194.535C215.846 194.535 230.086 194.629 230.086 194.739Z" fill="#E0E0E0"/>
<path d="M230.086 202.691C230.086 202.801 215.838 202.895 198.27 202.895C180.701 202.895 166.453 202.801 166.453 202.691C166.453 202.581 180.693 202.487 198.27 202.487C215.846 202.487 230.086 202.573 230.086 202.691Z" fill="#E0E0E0"/>
<path d="M230.086 210.644C230.086 210.754 215.838 210.848 198.27 210.848C180.701 210.848 166.5 210.754 166.5 210.644C166.5 210.534 180.74 210.44 198.317 210.44C215.893 210.44 230.086 210.526 230.086 210.644Z" fill="#E0E0E0"/>
<path d="M230.086 218.588C230.086 218.706 215.838 218.8 198.27 218.8C180.701 218.8 166.453 218.706 166.453 218.588C166.453 218.471 180.693 218.384 198.27 218.384C215.846 218.384 230.086 218.478 230.086 218.588Z" fill="#E0E0E0"/>
<path d="M295.275 182.926H248.951V227.742H295.275V182.926Z" fill="#F5F5F5"/>
<path d="M252.547 223.911L265.358 200.847L275.838 215.589L282.213 207.763L291.688 223.911H252.547Z" fill="#EBEBEB"/>
<path d="M280.329 196.364C280.329 197.024 280.133 197.669 279.767 198.218C279.4 198.766 278.879 199.194 278.269 199.447C277.66 199.699 276.989 199.765 276.342 199.636C275.694 199.508 275.1 199.19 274.633 198.723C274.167 198.257 273.849 197.662 273.72 197.015C273.592 196.368 273.658 195.697 273.91 195.088C274.163 194.478 274.59 193.957 275.139 193.59C275.688 193.224 276.333 193.028 276.993 193.028C277.431 193.027 277.865 193.113 278.271 193.28C278.676 193.447 279.044 193.693 279.354 194.003C279.664 194.313 279.91 194.681 280.077 195.086C280.244 195.492 280.33 195.926 280.329 196.364Z" fill="#EBEBEB"/>
<path d="M291.687 224.036C291.681 223.973 291.681 223.91 291.687 223.848C291.687 223.714 291.687 223.541 291.687 223.329C291.687 222.851 291.687 222.176 291.687 221.312C291.687 219.53 291.687 216.963 291.64 213.697C291.64 207.15 291.585 197.832 291.546 186.638L291.734 186.826H252.593C252.538 186.873 253.009 186.41 252.813 186.614V191.678C252.813 193.358 252.813 195.022 252.813 196.67V206.326C252.813 212.606 252.813 218.533 252.813 223.997L252.625 223.8L280.925 223.903L288.908 223.95H291.02H291.569H291.766H291.593H291.067H288.987L281.042 224.005L252.625 224.099H252.429V223.91C252.429 218.415 252.429 212.512 252.429 206.24C252.429 203.1 252.429 199.873 252.429 196.584V186.654C252.224 186.842 252.695 186.379 252.648 186.426H291.789H291.977V186.614C291.977 197.856 291.899 207.221 291.883 213.799C291.883 217.042 291.883 219.601 291.828 221.367C291.828 222.215 291.828 222.874 291.828 223.345C291.828 223.557 291.828 223.722 291.828 223.848C291.787 223.915 291.74 223.978 291.687 224.036V224.036Z" fill="#EBEBEB"/>
<path d="M228.721 97.8383H165.889V158.622H228.721V97.8383Z" fill="#F5F5F5"/>
<path d="M170.764 153.425L188.144 122.142L202.36 142.136L210.996 131.515L223.846 153.425H170.764Z" fill="#E0E0E0"/>
<path d="M208.413 116.058C208.413 116.952 208.147 117.826 207.65 118.57C207.154 119.314 206.447 119.893 205.621 120.235C204.795 120.578 203.886 120.667 203.009 120.493C202.132 120.318 201.326 119.888 200.694 119.255C200.061 118.623 199.63 117.817 199.456 116.94C199.282 116.063 199.371 115.154 199.713 114.328C200.056 113.501 200.635 112.795 201.379 112.298C202.122 111.801 202.997 111.536 203.891 111.536C205.09 111.536 206.24 112.013 207.088 112.861C207.936 113.709 208.413 114.859 208.413 116.058Z" fill="#E0E0E0"/>
<path d="M223.847 153.589C223.847 153.589 223.847 153.502 223.847 153.345C223.847 153.188 223.847 152.929 223.847 152.631C223.847 151.987 223.847 151.061 223.847 149.899C223.847 147.489 223.808 144.004 223.776 139.576C223.776 130.698 223.698 118.051 223.643 102.869L223.902 103.128H170.819L171.118 102.837V109.722C171.118 111.999 171.118 114.252 171.118 116.489C171.118 120.956 171.118 125.328 171.118 129.583C171.118 138.1 171.118 146.147 171.118 153.549L170.858 153.29L209.238 153.424L220.063 153.494H222.936H223.721H223.98C223.905 153.508 223.828 153.508 223.753 153.494H223.031H220.212L209.442 153.565L170.898 153.698H170.631V153.432C170.631 146.029 170.631 137.983 170.631 129.465C170.631 125.21 170.631 120.83 170.631 116.371V102.877L170.937 102.571L224.02 102.61H224.279V102.861C224.224 118.114 224.177 130.807 224.145 139.757C224.145 144.153 224.098 147.607 224.082 150.017C224.082 151.171 224.082 152.074 224.082 152.702C224.082 152.992 224.082 153.212 224.082 153.384C224.015 153.464 223.935 153.533 223.847 153.589Z" fill="#E0E0E0"/>
<path d="M319.436 143.141L313.156 143.055L313.391 125.957C313.388 122.955 312.793 119.982 311.641 117.208C310.489 114.435 308.802 111.916 306.677 109.795C304.551 107.673 302.029 105.992 299.253 104.845C296.477 103.699 293.503 103.111 290.5 103.114C287.497 103.117 284.524 103.711 281.751 104.863C278.978 106.015 276.459 107.702 274.337 109.828C270.053 114.121 267.65 119.94 267.656 126.005L267.421 143.141L261.141 143.055L261.376 125.957C261.382 118.227 264.459 110.816 269.93 105.354C275.401 99.8922 282.817 96.8273 290.547 96.8335C298.278 96.8398 305.689 99.9166 311.151 105.387C316.613 110.858 319.677 118.274 319.671 126.005L319.436 143.141Z" fill="#0D395A"/>
<path d="M320.016 134.812H261.706C253.776 134.812 247.348 141.24 247.348 149.17V205.479C247.348 213.409 253.776 219.837 261.706 219.837H320.016C327.946 219.837 334.374 213.409 334.374 205.479V149.17C334.374 141.24 327.946 134.812 320.016 134.812Z" fill="#3B46E7"/>
<g opacity="0.3">
<path opacity="0.3" d="M299.528 172.838C299.534 171.325 299.143 169.837 298.396 168.522C297.648 167.207 296.57 166.109 295.268 165.34C293.965 164.57 292.484 164.154 290.971 164.134C289.458 164.113 287.966 164.489 286.644 165.223C285.321 165.958 284.213 167.025 283.431 168.32C282.648 169.615 282.218 171.092 282.182 172.604C282.147 174.117 282.507 175.612 283.229 176.942C283.95 178.272 285.006 179.39 286.293 180.186L284.072 190.462H298.296C298.296 190.462 296.726 184.001 295.69 180.021C296.868 179.229 297.834 178.16 298.504 176.908C299.173 175.655 299.525 174.258 299.528 172.838Z" fill="black"/>
</g>
<g opacity="0.2">
<path opacity="0.2" d="M252.914 194.057C252.348 194.057 252.129 184.127 252.356 171.904C252.584 159.682 253.275 149.775 253.84 149.79C254.405 149.806 254.625 159.721 254.397 171.944C254.17 184.166 253.479 194.065 252.914 194.057Z" fill="white"/>
</g>
<g opacity="0.2">
<path opacity="0.2" d="M252.976 203.894C252.411 203.894 251.948 202.936 251.932 201.735C251.916 200.534 252.356 199.56 252.921 199.553C253.486 199.545 253.957 200.51 253.973 201.711C253.989 202.912 253.541 203.886 252.976 203.894Z" fill="white"/>
</g>
<g opacity="0.2">
<path opacity="0.2" d="M280.278 191.875C279.831 191.725 280.891 187.204 282.736 181.191L282.971 182.18C282.131 181.348 281.26 180.476 280.349 179.511C278.941 177.905 278.112 175.873 277.994 173.741C277.899 172.027 278.303 170.323 279.156 168.834C279.697 167.851 280.451 167.001 281.362 166.346C282.006 165.898 282.437 165.781 282.508 165.891C282.712 166.134 281.385 167.186 280.451 169.47C279.866 170.899 279.687 172.462 279.935 173.986C280.183 175.51 280.848 176.936 281.856 178.105L284.384 180.774L284.8 181.222L284.612 181.771C282.547 187.745 280.726 192.016 280.278 191.875Z" fill="white"/>
</g>
<g opacity="0.2">
<path opacity="0.2" d="M316.202 140.715C316.202 140.998 312.725 141.233 307.112 141.374C301.499 141.516 293.767 141.571 285.131 141.508C280.845 141.508 276.763 141.414 273.05 141.335C269.337 141.257 265.985 141.029 263.308 141.335C261.184 141.489 259.133 142.18 257.35 143.345C256.102 144.2 255.591 144.915 255.45 144.821C255.309 144.726 255.646 143.871 256.847 142.732C258.617 141.193 260.802 140.21 263.127 139.906C264.686 139.664 266.26 139.541 267.838 139.537L273.113 139.482C276.826 139.482 280.908 139.482 285.194 139.482C293.767 139.545 301.523 139.726 307.135 139.953C312.748 140.181 316.202 140.432 316.202 140.715Z" fill="white"/>
</g>
<path d="M22.5223 322.4L21.9649 324.488C21.9649 324.488 14.4053 336.789 15.3002 337.975C15.9112 338.738 16.7403 339.298 17.6771 339.578C18.614 339.859 19.614 339.847 20.5441 339.545C23.1739 338.885 34.274 328.343 34.274 328.343L34.9098 326.655L22.5223 322.4Z" fill="#3B46E7"/>
<g opacity="0.3">
<path opacity="0.3" d="M16.0542 335.147C16.0542 335.147 19.3278 333.703 21.2196 337.934C21.2196 337.934 22.6327 337.4 26.5577 334.119C30.4828 330.838 34.2744 327.619 34.2744 327.619C34.2744 327.619 34.6826 327.289 34.5649 327.619C34.4471 327.949 34.2744 328.506 34.2744 328.506L26.699 335.187C26.699 335.187 22.1617 339.112 21.0234 339.394C19.8851 339.677 18.7311 340.085 17.2867 339.441C16.3618 339.101 15.5937 338.434 15.1279 337.565C15.1279 337.377 16.0542 335.147 16.0542 335.147Z" fill="black"/>
</g>
<path d="M21.6588 339.316C21.6117 339.316 21.5332 338.9 21.2585 338.272C20.9034 337.455 20.3645 336.731 19.6837 336.156C19.0029 335.581 18.1985 335.172 17.3334 334.959C16.6661 334.802 16.2344 334.794 16.2344 334.755C16.6072 334.7 16.9876 334.727 17.3491 334.833C18.2656 335.002 19.1229 335.405 19.8376 336.003C20.541 336.605 21.081 337.374 21.4076 338.24C21.5594 338.58 21.6446 338.945 21.6588 339.316V339.316Z" fill="#0D395A"/>
<path d="M34.9106 327.077C34.8599 327.144 34.802 327.204 34.7379 327.258L34.2041 327.729L32.2651 329.44L25.6945 334.998C24.5169 336.061 23.2511 337.022 21.9107 337.871C20.7826 338.571 19.4565 338.882 18.1348 338.758C17.2338 338.662 16.3977 338.244 15.7798 337.581C15.5589 337.356 15.3854 337.089 15.2695 336.796C15.4378 337.075 15.6323 337.338 15.8504 337.581C16.4766 338.165 17.2813 338.522 18.1348 338.593C19.4106 338.68 20.6807 338.358 21.7616 337.675C23.0851 336.831 24.3374 335.881 25.5061 334.833C28.0574 332.714 30.3575 330.79 32.1238 329.338L34.1413 327.69L34.7065 327.25C34.7661 327.183 34.8348 327.125 34.9106 327.077V327.077Z" fill="#0D395A"/>
<path d="M22.9302 332.251C22.4375 332.009 21.9695 331.72 21.5329 331.388C21.053 331.118 20.5985 330.805 20.1748 330.453C20.7152 330.592 21.2224 330.838 21.6663 331.176C22.1547 331.447 22.5843 331.812 22.9302 332.251V332.251Z" fill="#0D395A"/>
<path d="M24.5554 330.485C23.963 330.297 23.3878 330.058 22.8362 329.771C22.2522 329.564 21.6896 329.301 21.1562 328.986C21.7788 329.068 22.382 329.26 22.9382 329.551C23.5259 329.77 24.0725 330.085 24.5554 330.485V330.485Z" fill="#0D395A"/>
<path d="M26.0633 328.97C26.0084 329.025 25.3254 328.42 24.3363 327.942C23.3472 327.463 22.4523 327.266 22.468 327.157C23.1596 327.155 23.8394 327.337 24.4384 327.682C25.0814 327.965 25.641 328.409 26.0633 328.97V328.97Z" fill="#0D395A"/>
<path d="M26.9345 327.164C26.9345 327.219 26.2594 326.756 25.3645 326.379C24.4696 326.002 23.716 325.822 23.7317 325.751C24.3353 325.737 24.9324 325.878 25.4666 326.159C26.0368 326.357 26.5436 326.704 26.9345 327.164V327.164Z" fill="#0D395A"/>
<path d="M26.5577 325.453C26.2073 325.304 25.8879 325.091 25.6156 324.825C25.3082 324.56 25.0245 324.268 24.7678 323.954C24.6114 323.767 24.4672 323.57 24.3361 323.365C24.2521 323.255 24.1858 323.134 24.1398 323.004C24.1082 322.924 24.0988 322.838 24.1126 322.753C24.1265 322.669 24.163 322.59 24.2183 322.525C24.3354 322.426 24.4789 322.364 24.6309 322.346C24.7829 322.328 24.9369 322.354 25.074 322.423C25.3113 322.521 25.5253 322.668 25.702 322.854C25.9889 323.165 26.1869 323.548 26.275 323.961C26.3375 324.231 26.3639 324.509 26.3535 324.786C26.3535 324.982 26.3536 325.092 26.3064 325.092C26.2593 325.092 26.3064 324.652 26.1102 324.008C26.0045 323.634 25.8076 323.291 25.5371 323.011C25.3801 322.853 25.1934 322.728 24.9876 322.643C24.8996 322.591 24.7993 322.563 24.6972 322.563C24.595 322.563 24.4948 322.591 24.4067 322.643C24.2811 322.768 24.4067 322.996 24.5323 323.192C24.6579 323.388 24.8071 323.592 24.9405 323.773C25.1813 324.086 25.4437 324.383 25.7255 324.66C26.2279 325.178 26.5734 325.414 26.5577 325.453Z" fill="#0D395A"/>
<path d="M26.3916 325.242C26.3916 325.242 26.3916 325.124 26.4701 324.936C26.5858 324.676 26.7392 324.436 26.9254 324.221C27.3645 323.698 27.958 323.327 28.621 323.162C28.7659 323.13 28.9158 323.13 29.0606 323.162C29.1474 323.182 29.2269 323.225 29.2906 323.288C29.3543 323.35 29.3996 323.428 29.4217 323.515C29.4287 323.662 29.4027 323.809 29.3457 323.945C29.2886 324.08 29.202 324.202 29.092 324.3C28.9272 324.492 28.7371 324.661 28.5268 324.802C28.1719 325.039 27.7704 325.197 27.3493 325.265C27.066 325.313 26.7769 325.313 26.4936 325.265C26.2974 325.265 26.1953 325.187 26.1953 325.171C26.5685 325.18 26.9417 325.153 27.31 325.093C27.6995 325.003 28.0676 324.838 28.3934 324.606C28.5879 324.475 28.7624 324.316 28.9115 324.135C28.9952 324.061 29.0623 323.971 29.1083 323.869C29.1543 323.768 29.1782 323.658 29.1784 323.546C29.1784 323.366 28.8958 323.326 28.6681 323.373C28.4423 323.426 28.2236 323.505 28.0165 323.609C27.6561 323.783 27.3293 324.02 27.051 324.308C26.8073 324.601 26.5868 324.914 26.3916 325.242V325.242Z" fill="#0D395A"/>
<path d="M32.7585 326.097C32.4051 326.008 32.0332 326.027 31.6908 326.152C30.8798 326.502 30.2085 327.113 29.7833 327.887C29.3558 328.662 29.1802 329.551 29.2809 330.43C29.3594 331.105 29.5399 331.498 29.5007 331.514C29.2858 331.198 29.151 330.834 29.1082 330.454C28.9525 329.532 29.1158 328.585 29.5713 327.769C30.0176 326.942 30.7524 326.308 31.6359 325.987C31.8166 325.907 32.0149 325.875 32.2116 325.894C32.4083 325.914 32.5967 325.984 32.7585 326.097V326.097Z" fill="#0D395A"/>
<path d="M28.2777 331.05C27.9135 331.525 27.4825 331.946 26.9981 332.298C26.5708 332.719 26.0873 333.078 25.5615 333.366C25.9257 332.89 26.3567 332.47 26.8411 332.118C27.2701 331.699 27.7533 331.34 28.2777 331.05V331.05Z" fill="#0D395A"/>
<path d="M29.7758 330.25C29.8464 330.25 29.9328 330.407 29.9799 330.611C30.027 330.815 29.9799 330.996 29.9799 331.019C29.9799 331.043 29.8229 330.886 29.7758 330.658C29.7287 330.431 29.713 330.258 29.7758 330.25Z" fill="#0D395A"/>
<path d="M29.9731 328.703C30.0359 328.703 30.0516 328.915 29.9731 329.111C29.8946 329.308 29.824 329.473 29.7612 329.465C29.6984 329.457 29.6827 329.276 29.7612 329.057C29.8397 328.837 29.9103 328.68 29.9731 328.703Z" fill="#0D395A"/>
<path d="M30.7968 327.384C30.8517 327.439 30.7968 327.588 30.6398 327.761C30.4828 327.934 30.365 328.028 30.3101 327.996C30.2551 327.965 30.3101 327.785 30.4514 327.604C30.5927 327.423 30.7575 327.337 30.7968 327.384Z" fill="#0D395A"/>
<path d="M32.1311 326.567C32.1311 326.63 32.0133 326.756 31.8249 326.85C31.6365 326.944 31.456 326.96 31.4167 326.905C31.3775 326.85 31.5188 326.724 31.7229 326.622C31.927 326.52 32.1075 326.505 32.1311 326.567Z" fill="#0D395A"/>
<path d="M33.6778 326.387C33.6778 326.458 33.4894 326.513 33.2853 326.513C33.0812 326.513 32.9007 326.458 32.8928 326.395C32.885 326.332 33.0577 326.269 33.2853 326.269C33.513 326.269 33.6857 326.317 33.6778 326.387Z" fill="#0D395A"/>
<path d="M126.804 127.591C126.317 128.179 125.627 134.412 125.627 134.412C125.627 134.412 114.126 154.038 112.525 154.312C110.923 154.587 103.945 140.692 103.945 140.692L96.7773 147.294C96.7773 147.294 100.514 164.832 112.195 167.838C117.69 169.259 127.33 151.769 133.751 137.223C133.861 136.987 137.182 129.074 137.182 129.074L126.804 127.591Z" fill="#A56959"/>
<path d="M137.056 129.756C137.056 129.756 137.056 129.842 137.017 129.952C136.718 130.894 134.936 134.772 134.387 134.733C133.837 134.694 132.566 133.791 132.699 133.234C132.833 132.676 135.093 128.414 135.093 128.414C135.093 128.414 135.486 127.762 136.726 128.108C137.496 128.327 137.056 129.756 137.056 129.756Z" fill="#A56959"/>
<path d="M135.328 127.316C135.328 127.316 135.328 127.402 135.328 127.52C135.03 128.454 133.248 132.34 132.699 132.292C132.149 132.245 130.877 131.35 131.019 130.793C131.16 130.236 133.374 125.981 133.374 125.981C133.374 125.981 133.774 125.329 135.007 125.675C135.768 125.887 135.328 127.316 135.328 127.316Z" fill="#A56959"/>
<path d="M133.343 125.604C133.343 125.604 133.343 125.69 133.343 125.8C133.045 126.742 131.263 130.628 130.713 130.581C130.164 130.534 128.9 129.639 129.033 129.081C129.167 128.524 131.388 124.269 131.388 124.269C131.388 124.269 131.789 123.618 133.029 123.955C133.783 124.175 133.343 125.604 133.343 125.604Z" fill="#A56959"/>
<path d="M131.357 123.939C131.368 124.004 131.368 124.07 131.357 124.135C131.05 125.077 129.276 128.963 128.727 128.916C128.177 128.869 126.906 127.974 127.039 127.417C127.172 126.859 129.394 122.597 129.394 122.597C129.394 122.597 129.794 121.945 131.035 122.291C131.788 122.51 131.357 123.939 131.357 123.939Z" fill="#A56959"/>
<path d="M133.186 132.08C133.607 131.522 133.951 130.91 134.206 130.259C134.55 129.66 134.814 129.019 134.991 128.351C134.58 128.916 134.238 129.527 133.971 130.173C133.632 130.774 133.368 131.415 133.186 132.08V132.08Z" fill="#7C4435"/>
<path d="M130.879 131.083C131.429 130.257 131.902 129.382 132.292 128.469C132.762 127.598 133.154 126.686 133.462 125.745C132.912 126.572 132.439 127.447 132.049 128.359C131.578 129.23 131.187 130.142 130.879 131.083Z" fill="#7C4435"/>
<g opacity="0.78">
<path opacity="0.78" d="M128.625 129.859C129.17 129.032 129.641 128.157 130.03 127.245C130.505 126.376 130.896 125.464 131.2 124.521C130.655 125.348 130.182 126.22 129.787 127.127C129.317 128.001 128.928 128.915 128.625 129.859V129.859Z" fill="#7C4435"/>
</g>
<path d="M126.819 135.307L126.034 131.868C125.689 130.363 125.939 128.782 126.733 127.456L127.345 126.444L134.857 130.243C134.857 130.243 132.981 132.685 131.089 131.248L132.471 134.215L126.819 135.307Z" fill="#A56959"/>
<path d="M131.803 134.483C131.756 134.483 131.803 134.083 131.732 133.416C131.588 132.491 131.108 131.652 130.382 131.06L129.66 130.48L130.539 130.762L132.494 131.398H132.447C132.872 131.472 133.31 131.424 133.709 131.258C134.108 131.093 134.452 130.817 134.7 130.464C134.738 130.41 134.77 130.352 134.794 130.291L134.896 130.542C132.729 129.561 130.783 128.643 129.401 127.897C128.64 127.53 127.919 127.085 127.25 126.57C128.029 126.878 128.789 127.232 129.527 127.63C130.916 128.305 132.871 129.2 135.022 130.158L135.194 130.236L135.132 130.417C135.096 130.501 135.054 130.582 135.006 130.66C134.727 131.118 134.297 131.462 133.789 131.634C133.329 131.785 132.841 131.831 132.36 131.767L130.429 131.092L130.586 130.801C131.356 131.458 131.836 132.392 131.921 133.4C131.978 133.765 131.938 134.139 131.803 134.483V134.483Z" fill="#7C4435"/>
<path d="M133.783 131.153C133.862 131.153 133.721 131.577 133.783 132.135C133.806 132.28 133.872 132.415 133.973 132.521C134.074 132.628 134.205 132.701 134.349 132.731C134.539 132.726 134.724 132.669 134.885 132.569C135.047 132.468 135.178 132.326 135.267 132.158C135.77 131.373 136.272 130.643 136.578 130.109C136.884 129.576 137.049 129.23 137.104 129.246C137.159 129.262 137.104 129.654 136.837 130.243C136.475 130.984 136.064 131.7 135.605 132.386C135.474 132.609 135.286 132.792 135.059 132.915C134.832 133.038 134.575 133.097 134.317 133.085C134.105 133.033 133.915 132.916 133.773 132.75C133.632 132.583 133.548 132.376 133.532 132.158C133.508 131.891 133.548 131.622 133.65 131.373C133.705 131.232 133.76 131.146 133.783 131.153Z" fill="#7C4435"/>
<path d="M101.174 181.34C101.174 181.34 94.7757 165.585 94.8071 165.286L96.4634 159.422L97.1307 156.031L99.2973 158.551L109.871 147.498C110.068 147.765 105.083 140.527 100.035 133.446C96.5184 128.516 92.7111 127.433 90.4895 127.276C89.5654 126.993 88.6165 126.798 87.6556 126.695L69.459 126.538C65.4876 126.576 61.6505 127.982 58.5944 130.518C57.7544 131.209 50.7835 140.48 46.0342 149.649L60.6668 160.207L63.0768 155.968V156.054C63.2809 157.491 64.1523 161.683 64.4349 163.12C65.322 167.539 65.6046 172.862 63.4458 176.512C61.8055 180.6 60.4058 184.781 59.2538 189.033H104.157C104.157 189.033 102.712 185.131 101.174 181.34Z" fill="#455A64"/>
<path d="M65.0468 174.754L63.4767 173.514V173.372L63.4139 173.451L53.2637 165.271L57.6206 158.088L47.1014 150.403C47.1485 150.913 37.3437 165.451 38.6703 168.309C40.5465 172.344 53.2873 180.414 58.4998 183.593C57.0804 183.778 55.6748 184.055 54.2921 184.425C52.9654 184.857 57.2908 185.995 58.3428 186.223C58.751 186.301 59.5909 185.65 60.4858 184.786L60.7292 184.928L61.0118 184.268C61.9699 183.282 62.8616 182.233 63.6809 181.128C63.9007 180.791 63.8928 179.26 63.8065 177.643L65.0468 174.754Z" fill="#A56959"/>
<path d="M121.324 326.669L121.262 325.186L106.213 325.617L106.346 330.516H107.273C111.418 330.618 128.342 330.767 131.082 329.911C134.136 328.993 121.324 326.669 121.324 326.669Z" fill="#3B46E7"/>
<g opacity="0.3">
<path opacity="0.3" d="M111.771 330.265C111.503 329.071 110.786 328.025 109.769 327.345C108.736 326.634 107.485 326.309 106.236 326.426L106.354 330.351L111.771 330.265Z" fill="black"/>
</g>
<g opacity="0.3">
<path opacity="0.3" d="M127.59 328.013C127.59 328.013 132.088 329.088 131.515 329.787C130.942 330.485 113.907 330.909 106.348 330.517V330.211L126.303 329.842C126.303 329.842 126.719 328.068 127.59 328.013Z" fill="black"/>
</g>
<path d="M106.127 330.202H106.378H107.163H109.887C112.195 330.202 115.382 330.202 118.883 330.116C122.385 330.029 125.58 329.88 127.872 329.747L130.596 329.566L131.334 329.511H131.593H131.334H130.549L127.825 329.637C125.532 329.739 122.33 329.864 118.844 329.959C115.359 330.053 112.148 330.076 109.848 330.092H107.124H106.386L106.127 330.202Z" fill="#0D395A"/>
<path d="M126.324 330.062C126.43 329.636 126.588 329.224 126.795 328.837C127.056 328.473 127.356 328.138 127.69 327.84C127.244 328.011 126.872 328.334 126.638 328.751C126.501 328.937 126.402 329.149 126.348 329.375C126.294 329.6 126.286 329.834 126.324 330.062Z" fill="#0D395A"/>
<path d="M121.835 328.089C121.882 328.089 122.086 327.87 122.29 327.54C122.494 327.21 122.635 326.928 122.596 326.904C122.557 326.881 122.345 327.132 122.141 327.454C121.937 327.775 121.795 328.066 121.835 328.089Z" fill="#0D395A"/>
<path d="M120.601 327.525C120.641 327.525 120.868 327.408 121.12 327.18C121.371 326.952 121.551 326.756 121.512 326.717C121.473 326.677 121.253 326.834 120.994 327.062C120.735 327.29 120.57 327.494 120.601 327.525Z" fill="#0D395A"/>
<path d="M119.801 326.198C120.054 326.278 120.322 326.302 120.586 326.269C120.851 326.293 121.119 326.261 121.371 326.175C121.117 326.096 120.85 326.072 120.586 326.104C120.32 326.074 120.052 326.107 119.801 326.198Z" fill="#0D395A"/>
<path d="M119.504 325.311C120.065 325.569 120.705 325.598 121.286 325.389C120.992 325.345 120.695 325.332 120.399 325.35C120.102 325.312 119.803 325.299 119.504 325.311V325.311Z" fill="#0D395A"/>
<path d="M122.305 326.857C122.624 326.915 122.951 326.915 123.27 326.857C123.617 326.811 123.959 326.732 124.291 326.622C124.493 326.563 124.688 326.482 124.872 326.378C124.927 326.35 124.976 326.31 125.015 326.261C125.055 326.212 125.083 326.156 125.099 326.096C125.11 326.028 125.101 325.958 125.073 325.896C125.046 325.833 125 325.78 124.942 325.742C124.572 325.582 124.159 325.548 123.767 325.646C123.376 325.744 123.027 325.968 122.776 326.284C122.628 326.458 122.525 326.665 122.477 326.889C122.477 327.038 122.477 327.132 122.477 327.132C122.565 326.846 122.706 326.58 122.893 326.347C123.102 326.105 123.374 325.926 123.678 325.829C124.055 325.7 124.466 325.714 124.832 325.868C124.989 325.97 124.934 326.143 124.77 326.237C124.598 326.333 124.417 326.41 124.228 326.465C123.909 326.581 123.581 326.67 123.247 326.732C122.674 326.818 122.305 326.834 122.305 326.857Z" fill="#0D395A"/>
<path d="M122.54 326.897C122.598 326.806 122.636 326.704 122.652 326.597C122.668 326.49 122.662 326.381 122.634 326.277C122.595 326.04 122.498 325.816 122.352 325.625C122.266 325.495 122.15 325.387 122.013 325.312C121.876 325.237 121.723 325.196 121.567 325.194C121.521 325.202 121.477 325.22 121.438 325.245C121.398 325.271 121.365 325.304 121.338 325.343C121.312 325.381 121.294 325.425 121.284 325.471C121.275 325.517 121.275 325.564 121.284 325.61C121.313 325.754 121.371 325.89 121.457 326.01C121.592 326.204 121.75 326.381 121.928 326.536C122.084 326.697 122.278 326.816 122.493 326.881C122.493 326.881 122.297 326.732 122.022 326.45C121.864 326.288 121.722 326.112 121.598 325.924C121.465 325.743 121.363 325.406 121.598 325.359C121.834 325.311 122.093 325.547 122.242 325.72C122.38 325.887 122.479 326.083 122.532 326.293C122.557 326.493 122.56 326.696 122.54 326.897V326.897Z" fill="#0D395A"/>
<path d="M106.314 326.386C106.314 326.386 106.738 326.339 107.421 326.386C108.297 326.455 109.139 326.753 109.863 327.25C110.559 327.734 111.104 328.407 111.433 329.189C111.676 329.778 111.715 330.178 111.747 330.178C111.778 330.178 111.747 330.076 111.747 329.895C111.717 329.627 111.654 329.363 111.558 329.11C111.255 328.286 110.707 327.574 109.988 327.069C109.238 326.553 108.355 326.262 107.445 326.229C107.171 326.202 106.895 326.202 106.621 326.229C106.51 326.263 106.406 326.316 106.314 326.386Z" fill="#0D395A"/>
<path d="M113.617 328.86C115.072 329.075 116.552 329.049 117.998 328.781C117.998 328.734 117.016 328.781 115.807 328.829C114.598 328.876 113.625 328.805 113.617 328.86Z" fill="#0D395A"/>
<path d="M110.678 328.931C110.678 328.931 110.764 329.119 110.874 329.324C110.984 329.528 111.039 329.716 111.086 329.716C111.133 329.716 111.157 329.488 111.031 329.253C110.905 329.017 110.709 328.892 110.678 328.931Z" fill="#0D395A"/>
<path d="M109.533 327.674C109.533 327.713 109.604 327.854 109.761 327.995C109.918 328.137 110.075 328.223 110.114 328.192C110.153 328.16 110.043 328.019 109.886 327.87C109.729 327.721 109.572 327.642 109.533 327.674Z" fill="#0D395A"/>
<path d="M107.932 327.133C107.932 327.18 108.144 327.172 108.364 327.243C108.584 327.313 108.749 327.415 108.788 327.376C108.827 327.337 108.694 327.156 108.419 327.078C108.144 326.999 107.917 327.093 107.932 327.133Z" fill="#0D395A"/>
<path d="M106.842 326.89C106.842 326.929 106.912 326.999 107.038 327.047C107.164 327.094 107.274 327.086 107.297 327.047C107.321 327.007 107.219 326.937 107.093 326.89C106.967 326.842 106.842 326.842 106.842 326.89Z" fill="#0D395A"/>
<path d="M77.2312 89.5643C76.3511 88.822 75.26 88.3749 74.112 88.2861C72.964 88.1974 71.8171 88.4715 70.8334 89.0697C69.8678 89.6899 69.1063 90.6398 68.0623 91.0951C66.3274 91.8801 64.2863 91.2678 62.4102 91.5661C61.0245 91.8327 59.7781 92.5813 58.8915 93.679C58.005 94.7768 57.5356 96.1529 57.5666 97.5636C57.6451 99.0708 58.2888 100.704 57.5666 102.015C56.9229 103.176 55.4706 103.585 54.4266 104.417C53.5727 105.163 53.0338 106.205 52.9186 107.332C52.8035 108.46 53.1208 109.59 53.8064 110.493C54.4312 111.086 55.021 111.715 55.5727 112.377C56.3106 113.531 56.2086 115.007 56.397 116.357C56.5854 117.707 57.3625 119.246 58.752 119.332C59.8589 119.403 60.8401 118.484 61.9392 118.547C63.5092 118.673 64.1136 120.525 65.0086 121.789C65.585 122.581 66.3627 123.205 67.2613 123.596C68.1598 123.986 69.1465 124.13 70.119 124.011C71.5242 123.822 72.9136 123.084 74.2796 123.43C76.0066 123.869 77.0428 125.887 78.8012 126.138C80.1122 126.326 81.329 125.455 82.3024 124.568C83.2758 123.681 84.2649 122.645 85.5681 122.409C87.1381 122.127 88.6453 123.077 90.2232 123.296C91.2481 123.416 92.2857 123.233 93.2078 122.77C94.13 122.307 94.8963 121.584 95.4121 120.69C96.2756 119.12 96.2757 117.189 97.0842 115.587C97.7221 114.567 98.422 113.586 99.1802 112.652C99.563 112.185 99.833 111.636 99.9692 111.048C100.105 110.46 100.104 109.848 99.9652 109.26C99.6826 108.475 98.9918 107.824 98.6542 107.031C98.1518 105.838 98.5208 104.487 98.6542 103.2C98.7877 101.913 98.5208 100.35 97.3433 99.8166C96.8268 99.6858 96.3204 99.5179 95.8282 99.3142C94.9097 98.7489 94.9568 97.438 94.8783 96.3625C94.8517 95.5714 94.6352 94.7983 94.2472 94.1084C93.8592 93.4184 93.311 92.8319 92.6489 92.3982C91.2751 91.6132 89.2419 92.0057 88.5511 93.4187" fill="#0D395A"/>
<path d="M68.4451 104.04C67.7367 102.747 67.3167 101.316 67.2142 99.8453C67.1116 98.3746 67.3289 96.8992 67.8512 95.5206C68.3734 94.1419 69.1881 92.8928 70.2392 91.8591C71.2904 90.8255 72.553 90.0318 73.9402 89.5328C75.929 88.899 78.0216 88.6564 80.1026 88.8184C81.887 88.808 83.6541 89.1689 85.2915 89.8782C86.1055 90.2414 86.8213 90.7933 87.3796 91.4881C87.938 92.183 88.3228 93.0008 88.5022 93.8739" fill="#3B46E7"/>
<path d="M78.2415 135.816C79.2091 135.891 80.1818 135.77 81.1012 135.459C82.0206 135.149 82.8679 134.656 83.5922 134.01C84.3165 133.364 84.9029 132.579 85.3162 131.701C85.7295 130.823 85.9612 129.87 85.9975 128.9C86.1466 124.975 86.2801 121.003 86.2801 121.003C86.2801 121.003 92.2305 120.454 92.6622 114.566C93.094 108.679 92.8977 95.0821 92.8977 95.0821C89.6359 93.4395 85.9948 92.6972 82.3503 92.9318C78.7057 93.1664 75.1899 94.3694 72.1655 96.4166L71.2471 97.0368L71.5846 128.704C71.6047 130.507 72.2993 132.237 73.5314 133.554C74.7635 134.87 76.4439 135.677 78.2415 135.816V135.816Z" fill="#A56959"/>
<path d="M90.095 105.445C89.9751 105.325 89.8935 105.173 89.8603 105.007C89.8272 104.841 89.844 104.668 89.9087 104.512C89.9734 104.356 90.0831 104.222 90.2239 104.128C90.3646 104.034 90.5301 103.983 90.6994 103.983C90.8687 103.983 91.0342 104.034 91.175 104.128C91.3157 104.222 91.4254 104.356 91.4901 104.512C91.5548 104.668 91.5717 104.841 91.5385 105.007C91.5054 105.173 91.4237 105.325 91.3039 105.445C91.1435 105.605 90.9261 105.695 90.6994 105.695C90.4728 105.695 90.2554 105.605 90.095 105.445V105.445Z" fill="#0D395A"/>
<path d="M92.3884 104.448C92.2942 104.55 91.7368 104.071 90.9282 104.016C90.1197 103.961 89.5074 104.346 89.421 104.236C89.3347 104.126 89.4838 104.008 89.7507 103.828C90.1105 103.602 90.5329 103.497 90.9566 103.528C91.3802 103.559 91.7828 103.725 92.1058 104C92.3648 104.22 92.4355 104.409 92.3884 104.448Z" fill="#0D395A"/>
<path d="M82.4032 104.338C82.5034 104.399 82.5901 104.479 82.6578 104.575C82.7256 104.671 82.773 104.779 82.7971 104.894C82.8211 105.009 82.8214 105.127 82.7978 105.242C82.7742 105.357 82.7272 105.465 82.6599 105.561C82.5925 105.657 82.5062 105.738 82.4062 105.799C82.3062 105.861 82.1947 105.901 82.0786 105.917C81.9625 105.933 81.8443 105.925 81.7314 105.894C81.6184 105.863 81.5131 105.809 81.4219 105.735C81.3217 105.674 81.235 105.594 81.1672 105.498C81.0995 105.402 81.0521 105.294 81.028 105.179C81.0039 105.064 81.0037 104.946 81.0273 104.831C81.0509 104.716 81.0978 104.608 81.1652 104.512C81.2325 104.416 81.3189 104.335 81.4189 104.273C81.5189 104.212 81.6304 104.172 81.7464 104.156C81.8625 104.14 81.9807 104.147 82.0937 104.179C82.2066 104.21 82.312 104.264 82.4032 104.338V104.338Z" fill="#0D395A"/>
<path d="M83.5426 104.637C83.3505 104.455 83.118 104.321 82.8643 104.246C82.6106 104.171 82.3427 104.157 82.0825 104.205C81.2975 104.134 80.6538 104.535 80.5674 104.425C80.4811 104.315 80.6302 104.197 80.905 104.017C81.2644 103.787 81.6885 103.68 82.1139 103.711C82.5423 103.742 82.9493 103.91 83.2757 104.189C83.5112 104.409 83.5897 104.598 83.5426 104.637Z" fill="#0D395A"/>
<path d="M86.4319 110.941C86.86 110.802 87.3085 110.735 87.7585 110.744C87.9783 110.744 88.1432 110.697 88.1667 110.58C88.1861 110.368 88.1453 110.156 88.049 109.967C87.8763 109.418 87.6957 108.86 87.5073 108.279C86.9897 106.846 86.6137 105.366 86.3848 103.86C86.5104 103.821 87.1698 105.736 87.9548 108.138L88.4572 109.842C88.5789 110.121 88.6011 110.435 88.52 110.729C88.4856 110.808 88.4327 110.878 88.3658 110.932C88.2989 110.987 88.2199 111.025 88.1353 111.043C88.013 111.061 87.8887 111.061 87.7664 111.043C87.319 111.085 86.8676 111.051 86.4319 110.941Z" fill="#0D395A"/>
<path d="M86.2979 120.924C83.5758 120.807 80.95 119.883 78.7539 118.271C78.7539 118.271 80.3239 122.62 86.2194 122.447L86.2979 120.924Z" fill="#7C4435"/>
<path d="M76.6247 93.0501C76.7658 94.2646 77.304 95.3986 78.1557 96.2759C79.0074 97.1531 80.125 97.7246 81.3348 97.9014C82.7792 98.0741 84.3493 97.6738 85.6524 98.3254C86.5309 98.9058 87.2794 99.6623 87.8504 100.547C88.1387 100.988 88.5228 101.358 88.9741 101.63C89.4253 101.902 89.9321 102.068 90.4567 102.117C90.9599 102.057 91.4549 101.941 91.9325 101.772C92.1724 101.688 92.4277 101.659 92.6802 101.686C92.9326 101.713 93.1759 101.796 93.3926 101.929C94.1389 100.199 94.4386 98.3092 94.264 96.4335C94.166 95.5006 93.81 94.6135 93.236 93.8716C92.6619 93.1298 91.8925 92.5626 91.014 92.2337C89.8444 91.8804 88.5805 92.1081 87.3794 91.8961C86.3983 91.6685 85.4491 91.3205 84.5534 90.8599C83.0685 90.0581 81.3849 89.6985 79.702 89.8237C78.0378 90.0749 76.4363 91.4408 76.4834 93.1207" fill="#0D395A"/>
<path d="M71.6631 109.158C73.7983 110.877 76.3731 106.434 77.5114 103.663C78.5529 100.805 79.1126 97.7943 79.1678 94.7532C79.3275 93.7669 79.1447 92.7557 78.6497 91.8879C78.0374 91.0558 77.7626 92.0763 77.0796 91.2991C75.7687 89.7762 73.3508 90.6004 72.1576 91.1185C70.1715 91.9742 68.9312 94.1958 68.5387 96.4488C68.2667 98.7242 68.3488 101.028 68.7821 103.278C68.9312 104.315 69.0804 105.351 69.2217 106.418C69.2715 107.154 69.4833 107.87 69.8418 108.514C70.0115 108.823 70.2851 109.062 70.6142 109.189C70.9433 109.315 71.3065 109.321 71.6395 109.205" fill="#0D395A"/>
<path d="M71.585 104.314C71.5833 104.085 71.4935 103.865 71.3343 103.7C71.175 103.535 70.9585 103.437 70.7294 103.427C69.6304 103.427 67.8327 103.835 67.6678 106.865C67.4323 111.199 71.5929 110.115 71.5929 110.006C71.5929 109.896 71.5929 106.002 71.585 104.314Z" fill="#A56959"/>
<path d="M70.66 108.294C70.66 108.294 70.5815 108.341 70.448 108.388C70.2662 108.458 70.0647 108.458 69.8828 108.388C69.6103 108.196 69.3939 107.934 69.256 107.631C69.118 107.327 69.0634 106.993 69.0978 106.661C69.1052 106.289 69.1964 105.924 69.3647 105.593C69.4141 105.46 69.4947 105.34 69.5999 105.245C69.7051 105.149 69.8318 105.08 69.9692 105.044C70.0573 105.026 70.1488 105.04 70.2276 105.084C70.3065 105.127 70.3678 105.196 70.4009 105.279C70.448 105.405 70.4009 105.483 70.4402 105.499C70.4795 105.515 70.5422 105.428 70.5108 105.248C70.4969 105.139 70.4439 105.038 70.3617 104.965C70.2456 104.868 70.0971 104.817 69.9456 104.824C69.7662 104.85 69.5964 104.921 69.4522 105.031C69.308 105.141 69.1941 105.286 69.1214 105.452C68.9195 105.818 68.8065 106.227 68.7917 106.645C68.7502 107.029 68.8226 107.417 68.9998 107.761C69.1771 108.104 69.4514 108.388 69.7886 108.576C69.9026 108.62 70.025 108.636 70.1463 108.623C70.2676 108.611 70.3843 108.571 70.4873 108.506C70.6443 108.396 70.6757 108.302 70.66 108.294Z" fill="#7C4435"/>
<path d="M84.3493 111.984C84.199 112.243 84.1553 112.55 84.2272 112.84C84.2991 113.131 84.4811 113.382 84.7347 113.541C84.9883 113.7 85.2937 113.754 85.5865 113.692C85.8793 113.63 86.1365 113.456 86.3039 113.208C86.3936 113.086 86.4584 112.948 86.4945 112.8C86.5306 112.653 86.5374 112.5 86.5144 112.351C86.4914 112.201 86.4392 112.057 86.3607 111.927C86.2821 111.798 86.1788 111.685 86.0567 111.595C85.9345 111.505 85.7959 111.441 85.6487 111.405C85.5015 111.368 85.3486 111.362 85.1988 111.385C85.049 111.408 84.9052 111.46 84.7756 111.538C84.646 111.617 84.5331 111.72 84.4435 111.842" fill="#7C4435"/>
<path d="M87.0505 112.825C86.7577 112.945 86.4427 113.002 86.1262 112.993C85.8097 112.983 85.4987 112.907 85.2136 112.77C84.2166 112.416 83.6436 111.718 83.7613 111.647C83.8791 111.576 84.4521 112.071 85.3313 112.377C86.2106 112.683 87.0427 112.675 87.0505 112.825Z" fill="#0D395A"/>
<path d="M76.0055 89.6584C74.3963 89.4386 73.258 87.8686 72.9832 86.275C72.8308 84.6594 73.0235 83.0298 73.5485 81.4943C74.8711 82.4141 75.8273 83.7704 76.2494 85.3252C76.6715 86.8799 76.5323 88.5336 75.8564 89.996" fill="#3B46E7"/>
<path d="M75.9884 89.4151C75.8315 88.8178 75.8774 88.1853 76.119 87.617C76.3605 87.0486 76.784 86.5766 77.3229 86.2751C78.4034 85.6946 79.6411 85.4745 80.8555 85.6471C80.963 85.6504 81.0681 85.6801 81.1616 85.7334C81.2153 85.7793 81.259 85.8358 81.29 85.8992C81.3211 85.9627 81.3388 86.0318 81.3422 86.1023C81.3851 86.7021 81.2472 87.3009 80.9464 87.8214C80.6455 88.342 80.1955 88.7604 79.6544 89.0226C78.5613 89.5199 77.3776 89.7871 76.1768 89.8076C75.9926 89.8396 75.8033 89.8234 75.6273 89.7605C75.5838 89.7433 75.5441 89.7175 75.5107 89.6848C75.4772 89.6521 75.4506 89.6131 75.4323 89.57C75.414 89.5269 75.4045 89.4806 75.4043 89.4338C75.4041 89.387 75.4132 89.3406 75.431 89.2974" fill="#3B46E7"/>
<path d="M97.4215 97.1949C97.4215 97.1949 97.4215 97.1085 97.3195 96.9908C97.255 96.9079 97.1745 96.8387 97.0828 96.7875C96.9911 96.7362 96.8901 96.7039 96.7857 96.6925C96.6255 96.65 96.4551 96.6702 96.3092 96.749C96.1634 96.8277 96.0531 96.9591 96.0007 97.1164C95.9534 97.3197 95.9757 97.5331 96.0639 97.7223C96.1522 97.9116 96.3012 98.0658 96.4874 98.1604C96.7261 98.2478 96.9872 98.2528 97.229 98.1745C97.4709 98.0963 97.6796 97.9393 97.8219 97.7287C97.9833 97.4732 98.0785 97.1815 98.0991 96.88C98.1196 96.5786 98.0648 96.2767 97.9397 96.0016C97.6504 95.3456 97.1395 94.8123 96.4965 94.4951C95.8535 94.1779 95.1194 94.0971 94.4228 94.2668L94.1873 94.3374L93.0961 94.6828L93.991 93.9842C94.2508 93.7559 94.4383 93.4568 94.5303 93.1235C94.6224 92.7901 94.615 92.4372 94.5091 92.108C94.4009 91.7958 94.2242 91.5118 93.9919 91.2768C93.7596 91.0418 93.4777 90.8617 93.1668 90.7499C92.6144 90.5702 92.028 90.5206 91.4534 90.6051C90.8787 90.6895 90.3313 90.9056 89.854 91.2366C89.4301 91.4957 89.069 91.8018 88.7 92.0216C88.3889 92.217 88.0311 92.3254 87.6638 92.3356C87.0358 92.3356 86.8003 92.0059 86.8239 92.0059C87.0773 92.1466 87.3675 92.2068 87.656 92.1786C87.9902 92.1435 88.3095 92.0217 88.5823 91.8254C88.912 91.6134 89.2574 91.2916 89.7049 91.0011C90.1837 90.6789 90.715 90.4425 91.2749 90.3024C91.9402 90.1324 92.6417 90.1707 93.2845 90.4123C93.6479 90.5383 93.978 90.745 94.2499 91.017C94.5218 91.2889 94.7286 91.619 94.8545 91.9824C94.9975 92.394 95.0125 92.8393 94.8976 93.2596C94.7827 93.68 94.5433 94.0557 94.2108 94.3374L94.0146 93.9842L94.2893 93.8978C95.0804 93.703 95.915 93.7968 96.6431 94.1623C97.3712 94.5278 97.9451 95.141 98.2615 95.8917C98.4057 96.2262 98.4627 96.5918 98.427 96.9543C98.3913 97.3168 98.2641 97.6643 98.0574 97.9642C97.8659 98.2295 97.5891 98.421 97.2733 98.5067C96.9575 98.5925 96.6219 98.5672 96.3225 98.4352C96.0834 98.3072 95.8958 98.1006 95.7914 97.8503C95.687 97.6 95.6722 97.3214 95.7495 97.0614C95.7888 96.9554 95.8505 96.8591 95.9304 96.7792C96.0104 96.6993 96.1066 96.6376 96.2126 96.5983C96.3834 96.5355 96.5683 96.5219 96.7464 96.559C96.8679 96.5786 96.983 96.6265 97.0825 96.6987C97.1821 96.771 97.2632 96.8657 97.3195 96.9751C97.4765 97.1085 97.4215 97.1949 97.4215 97.1949Z" fill="#0D395A"/>
<path d="M54.3237 104.189C54.4653 104.153 54.6138 104.153 54.7554 104.189C55.0967 104.295 55.3979 104.501 55.6194 104.782C55.8408 105.062 55.972 105.403 55.9958 105.759C56.0056 105.945 55.9788 106.13 55.9168 106.305C55.8548 106.48 55.759 106.642 55.6347 106.78C55.3429 107.094 54.9523 107.299 54.5278 107.361C54.2889 107.4 54.0441 107.387 53.8108 107.322C53.5776 107.257 53.3614 107.141 53.1776 106.984C52.8313 106.587 52.6012 106.102 52.5125 105.583C52.4239 105.063 52.4802 104.529 52.6752 104.04C52.8701 103.46 53.1887 102.93 53.6089 102.485C54.0291 102.04 54.5408 101.692 55.1087 101.465C55.7132 101.23 56.349 101.135 56.9456 100.955C57.2418 100.883 57.5204 100.753 57.7647 100.571C58.0089 100.388 58.2136 100.159 58.3665 99.8951C58.6306 99.3071 58.7073 98.6521 58.5863 98.0189C58.4672 97.3383 58.2832 96.6706 58.0368 96.025C57.7854 95.3423 57.6423 94.6245 57.6129 93.8976C57.6225 93.1571 57.9016 92.4455 58.3979 91.8958C58.867 91.3766 59.4699 90.9964 60.1406 90.7968C60.776 90.6183 61.4409 90.5702 62.0953 90.6555C63.3827 90.789 64.4504 91.4405 65.4709 91.5897C65.9608 91.6867 66.4691 91.6177 66.9153 91.3934C67.325 91.1593 67.6914 90.8566 67.9986 90.4985C68.5148 89.8148 69.167 89.2455 69.9141 88.8264C70.5076 88.5529 71.1638 88.4444 71.8138 88.5124C72.2214 88.5508 72.6181 88.6653 72.9835 88.85C73.0777 88.8975 73.1694 88.9499 73.2582 89.007L73.3367 89.0776C72.8535 88.8552 72.3357 88.7172 71.8059 88.6694C71.1879 88.6297 70.5704 88.7543 70.0161 89.0305C69.3074 89.4568 68.693 90.0231 68.2106 90.6948C67.8854 91.083 67.4982 91.4146 67.0645 91.676C66.5596 91.9363 65.9834 92.0245 65.4238 91.9272C64.2777 91.7545 63.2493 91.1422 62.0561 91.0323C61.4475 90.9313 60.8234 90.9816 60.2388 91.1787C59.6543 91.3759 59.1272 91.7138 58.7041 92.1627C58.2818 92.6448 58.0501 93.2646 58.0525 93.9055C58.0767 94.5874 58.212 95.2609 58.4529 95.8994C58.7089 96.5673 58.8982 97.2588 59.0181 97.964C59.1505 98.6811 59.0572 99.4216 58.7512 100.084C58.5744 100.392 58.3362 100.662 58.0513 100.875C57.7665 101.088 57.4409 101.241 57.0948 101.324C56.4511 101.52 55.8231 101.606 55.2735 101.811C54.7527 102.02 54.2828 102.338 53.8955 102.744C53.5082 103.151 53.2125 103.635 53.0284 104.166C52.8295 104.603 52.7558 105.087 52.8154 105.564C52.875 106.04 53.0656 106.491 53.366 106.866C53.672 107.105 54.0555 107.221 54.4426 107.194C54.8296 107.166 55.1928 106.996 55.462 106.717C55.6596 106.495 55.7782 106.213 55.7995 105.917C55.8208 105.62 55.7435 105.324 55.5797 105.076C55.4009 104.718 55.0962 104.439 54.724 104.291C54.4728 104.205 54.3237 104.205 54.3237 104.189Z" fill="#0D395A"/>
<path d="M79.3027 108.35C79.2801 108.362 79.2553 108.369 79.2299 108.371C79.2044 108.374 79.1788 108.371 79.1546 108.362C79.1304 108.354 79.108 108.341 79.089 108.325C79.0699 108.308 79.0544 108.287 79.0436 108.264C79.031 108.216 79.0369 108.165 79.0602 108.121C79.0835 108.078 79.1224 108.044 79.1692 108.028C79.2154 108.008 79.2675 108.006 79.3153 108.022C79.3631 108.038 79.4034 108.071 79.4283 108.115C79.4409 108.162 79.4349 108.213 79.4117 108.257C79.3884 108.301 79.3494 108.334 79.3027 108.35Z" fill="#0D395A"/>
<path d="M80.8492 108.224C80.8207 108.227 80.7919 108.225 80.7645 108.216C80.737 108.208 80.7115 108.195 80.6895 108.176C80.6675 108.158 80.6494 108.135 80.6364 108.11C80.6234 108.084 80.6156 108.056 80.6137 108.028C80.608 107.999 80.6079 107.97 80.6135 107.942C80.6191 107.913 80.6302 107.886 80.6463 107.862C80.6623 107.838 80.683 107.818 80.707 107.802C80.7311 107.785 80.758 107.774 80.7864 107.769C80.8397 107.773 80.89 107.796 80.9288 107.832C80.9677 107.869 80.9928 107.918 81.0001 107.971C81.0074 108.024 80.9965 108.078 80.969 108.124C80.9416 108.17 80.8994 108.205 80.8492 108.224V108.224Z" fill="#0D395A"/>
<path d="M82.2537 108.546C82.1946 108.529 82.1439 108.491 82.1119 108.438C82.0798 108.386 82.0688 108.323 82.081 108.263C82.081 108.114 82.2066 108.012 82.3165 108.028C82.3757 108.044 82.4263 108.083 82.4584 108.135C82.4904 108.188 82.5014 108.25 82.4892 108.31C82.4855 108.372 82.4595 108.429 82.4161 108.473C82.3727 108.516 82.315 108.542 82.2537 108.546V108.546Z" fill="#0D395A"/>
<path d="M80.5908 109.512C80.7035 109.512 80.7949 109.424 80.7949 109.315C80.7949 109.207 80.7035 109.119 80.5908 109.119C80.4781 109.119 80.3867 109.207 80.3867 109.315C80.3867 109.424 80.4781 109.512 80.5908 109.512Z" fill="#0D395A"/>
<path d="M90.3557 108.75C90.3112 108.761 90.2647 108.757 90.2221 108.741C90.1795 108.725 90.1428 108.696 90.1168 108.658C90.0907 108.621 90.0766 108.576 90.0762 108.531C90.0758 108.485 90.0891 108.44 90.1144 108.402C90.1397 108.364 90.1759 108.335 90.2182 108.318C90.2605 108.3 90.307 108.296 90.3516 108.306C90.3963 108.315 90.437 108.338 90.4685 108.371C90.5 108.404 90.5209 108.446 90.5284 108.491C90.5379 108.548 90.5253 108.607 90.4932 108.655C90.4612 108.703 90.412 108.737 90.3557 108.75V108.75Z" fill="#0D395A"/>
<path d="M91.4001 108.797C91.2902 108.797 91.251 108.6 91.3059 108.443C91.3609 108.286 91.4865 108.184 91.5964 108.216C91.7063 108.247 91.7455 108.412 91.6906 108.577C91.6356 108.742 91.51 108.836 91.4001 108.797Z" fill="#0D395A"/>
<path d="M90.882 110.218C90.8539 110.213 90.8271 110.202 90.8034 110.185C90.7797 110.169 90.7595 110.148 90.7441 110.124C90.7286 110.1 90.7183 110.073 90.7137 110.044C90.7091 110.016 90.7103 109.987 90.7172 109.959C90.7201 109.931 90.7285 109.904 90.742 109.88C90.7554 109.855 90.7737 109.833 90.7956 109.816C90.8175 109.798 90.8427 109.785 90.8696 109.778C90.8966 109.77 90.9248 109.768 90.9527 109.771C90.9805 109.775 91.0072 109.786 91.0308 109.801C91.0545 109.817 91.0747 109.837 91.0902 109.86C91.1057 109.884 91.1162 109.91 91.1209 109.938C91.1256 109.966 91.1244 109.995 91.1175 110.022C91.1116 110.079 91.0836 110.131 91.0396 110.168C90.9957 110.205 90.9391 110.223 90.882 110.218Z" fill="#0D395A"/>
<path d="M122.368 325.626L104.658 197.308L104.163 189.026L59.8495 186.922L57.9968 193.901C51.7795 215.818 20.3633 321.803 20.3633 321.803L35.7103 326.646L81.3981 205.205L102.664 325.414L122.368 325.626Z" fill="#0D395A"/>
<path d="M101.903 187.786C101.785 187.786 101.675 187.543 101.644 187.221C101.613 186.899 101.644 186.624 101.785 186.616C101.927 186.609 102.013 186.86 102.044 187.182C102.076 187.503 102.013 187.778 101.903 187.786Z" fill="#455A64"/>
<path d="M102.367 192.456C102.257 192.456 102.108 191.954 102.045 191.31C101.982 190.666 102.045 190.133 102.131 190.125C102.218 190.117 102.39 190.627 102.453 191.271C102.516 191.915 102.477 192.448 102.367 192.456Z" fill="#455A64"/>
<path d="M102.853 197.126C102.735 197.126 102.594 196.624 102.523 195.98C102.453 195.337 102.523 194.803 102.602 194.787C102.68 194.771 102.861 195.289 102.931 195.933C103.002 196.577 102.963 197.111 102.853 197.126Z" fill="#455A64"/>
<path d="M103.357 201.791C103.239 201.791 103.098 201.288 103.027 200.645C102.957 200.001 103.027 199.467 103.098 199.459C103.169 199.451 103.365 199.962 103.428 200.605C103.49 201.249 103.467 201.775 103.357 201.791Z" fill="#455A64"/>
<path d="M103.873 206.453C103.763 206.453 103.614 205.951 103.544 205.307C103.473 204.663 103.497 204.138 103.614 204.122C103.732 204.106 103.873 204.624 103.944 205.268C104.015 205.912 103.983 206.438 103.873 206.453Z" fill="#455A64"/>
<path d="M104.416 211.115C104.298 211.115 104.149 210.613 104.07 209.969C103.992 209.326 104.031 208.8 104.141 208.784C104.251 208.768 104.408 209.278 104.479 209.922C104.549 210.566 104.526 211.1 104.416 211.115Z" fill="#455A64"/>
<path d="M104.963 215.778C104.853 215.778 104.696 215.276 104.618 214.632C104.539 213.989 104.571 213.455 104.681 213.447C104.791 213.439 104.948 213.942 105.026 214.585C105.105 215.229 105.073 215.763 104.963 215.778Z" fill="#455A64"/>
<path d="M105.53 220.433C105.42 220.433 105.263 219.938 105.184 219.295C105.106 218.651 105.129 218.117 105.247 218.101C105.365 218.086 105.514 218.596 105.593 219.24C105.671 219.883 105.64 220.417 105.53 220.433Z" fill="#455A64"/>
<path d="M106.11 225.089C105.992 225.089 105.835 224.595 105.757 223.951C105.678 223.307 105.702 222.773 105.819 222.765C105.937 222.758 106.086 223.26 106.165 223.904C106.243 224.547 106.22 225.073 106.11 225.089Z" fill="#455A64"/>
<path d="M106.7 229.745C106.583 229.745 106.426 229.25 106.347 228.606C106.269 227.963 106.292 227.437 106.402 227.421C106.512 227.405 106.669 227.916 106.755 228.559C106.842 229.203 106.842 229.729 106.7 229.745Z" fill="#455A64"/>
<path d="M107.296 234.399C107.186 234.399 107.029 233.904 106.943 233.261C106.856 232.617 106.88 232.091 106.997 232.075C107.115 232.059 107.264 232.57 107.351 233.213C107.437 233.857 107.406 234.352 107.296 234.399Z" fill="#455A64"/>
<path d="M107.901 239.063C107.791 239.063 107.634 238.568 107.548 237.925C107.462 237.281 107.485 236.747 107.603 236.739C107.721 236.731 107.87 237.226 107.956 237.87C108.043 238.513 108.019 239.063 107.901 239.063Z" fill="#455A64"/>
<path d="M108.521 243.709C108.403 243.709 108.246 243.215 108.16 242.571C108.073 241.927 108.097 241.393 108.207 241.378C108.317 241.362 108.482 241.872 108.568 242.516C108.654 243.16 108.631 243.693 108.521 243.709Z" fill="#455A64"/>
<path d="M109.142 248.356C109.024 248.356 108.867 247.862 108.781 247.218C108.695 246.574 108.718 246.049 108.828 246.033C108.938 246.017 109.103 246.527 109.189 247.171C109.275 247.815 109.252 248.341 109.142 248.356Z" fill="#455A64"/>
<path d="M109.763 253.012C109.653 253.012 109.496 252.517 109.401 251.873C109.307 251.23 109.339 250.696 109.449 250.68C109.558 250.664 109.723 251.175 109.81 251.818C109.896 252.462 109.872 252.996 109.763 253.012Z" fill="#455A64"/>
<path d="M110.388 257.659C110.278 257.659 110.113 257.164 110.027 256.521C109.941 255.877 109.964 255.351 110.074 255.335C110.184 255.32 110.349 255.83 110.435 256.466C110.522 257.102 110.506 257.643 110.388 257.659Z" fill="#455A64"/>
<path d="M111.026 262.306C110.908 262.306 110.751 261.819 110.664 261.176C110.578 260.532 110.594 259.998 110.664 259.983C110.735 259.967 110.939 260.477 111.026 261.121C111.112 261.765 111.136 262.298 111.026 262.306Z" fill="#455A64"/>
<path d="M111.668 266.953C111.558 266.953 111.393 266.459 111.299 265.823C111.205 265.187 111.221 264.645 111.299 264.63C111.378 264.614 111.574 265.124 111.66 265.76C111.747 266.396 111.778 266.938 111.668 266.953Z" fill="#455A64"/>
<path d="M112.335 271.593C112.225 271.593 112.06 271.098 111.966 270.463C111.872 269.827 111.88 269.293 111.966 269.269C112.053 269.246 112.249 269.764 112.343 270.4C112.437 271.036 112.461 271.577 112.335 271.593Z" fill="#455A64"/>
<path d="M113.05 276.225C112.94 276.225 112.767 275.738 112.673 275.095C112.579 274.451 112.587 273.925 112.673 273.909C112.76 273.894 112.948 274.396 113.05 275.04C113.152 275.683 113.16 276.209 113.05 276.225Z" fill="#455A64"/>
<path d="M113.748 280.864C113.638 280.864 113.474 280.378 113.372 279.734C113.27 279.09 113.285 278.564 113.372 278.548C113.458 278.533 113.646 279.035 113.748 279.679C113.85 280.323 113.905 280.849 113.748 280.864Z" fill="#455A64"/>
<path d="M114.454 285.495C114.344 285.495 114.172 285.009 114.078 284.373C113.983 283.737 113.991 283.195 114.078 283.18C114.164 283.164 114.36 283.666 114.454 284.31C114.549 284.954 114.564 285.48 114.454 285.495Z" fill="#455A64"/>
<path d="M115.162 290.136C115.044 290.136 114.879 289.641 114.777 289.006C114.675 288.37 114.698 287.836 114.777 287.812C114.855 287.789 115.06 288.307 115.154 288.943C115.248 289.579 115.272 290.089 115.162 290.136Z" fill="#455A64"/>
<path d="M115.868 294.798C115.75 294.798 115.585 294.311 115.483 293.667C115.381 293.024 115.397 292.498 115.483 292.482C115.569 292.466 115.758 292.969 115.86 293.612C115.962 294.256 115.977 294.751 115.868 294.798Z" fill="#455A64"/>
<path d="M116.569 299.414C116.459 299.414 116.294 298.919 116.192 298.283C116.09 297.648 116.106 297.106 116.192 297.09C116.278 297.075 116.474 297.577 116.577 298.221C116.679 298.864 116.686 299.39 116.569 299.414Z" fill="#455A64"/>
<path d="M117.274 304.053C117.164 304.053 116.999 303.558 116.897 302.923C116.795 302.287 116.811 301.745 116.897 301.729C116.983 301.714 117.18 302.216 117.282 302.86C117.384 303.503 117.392 304.029 117.274 304.053Z" fill="#455A64"/>
<path d="M117.982 308.693C117.872 308.693 117.699 308.199 117.605 307.563C117.511 306.927 117.518 306.385 117.605 306.37C117.691 306.354 117.887 306.856 117.982 307.5C118.076 308.144 118.092 308.678 117.982 308.693Z" fill="#455A64"/>
<path d="M118.685 313.333C118.567 313.333 118.402 312.846 118.3 312.202C118.198 311.558 118.222 311.025 118.3 311.009C118.379 310.993 118.583 311.503 118.677 312.139C118.771 312.775 118.795 313.317 118.685 313.333Z" fill="#455A64"/>
<path d="M119.4 317.972C119.282 317.972 119.117 317.485 119.023 316.841C118.929 316.198 118.936 315.672 119.023 315.656C119.109 315.64 119.305 316.143 119.4 316.787C119.494 317.43 119.494 317.956 119.4 317.972Z" fill="#455A64"/>
<path d="M120.076 322.618C119.967 322.618 119.794 322.131 119.7 321.487C119.605 320.844 119.621 320.31 119.7 320.294C119.778 320.278 119.974 320.781 120.076 321.424C120.179 322.068 120.186 322.602 120.076 322.618Z" fill="#455A64"/>
<path d="M120.58 326.137C120.47 326.137 120.344 325.901 120.297 325.579C120.25 325.257 120.297 324.983 120.415 324.967C120.533 324.951 120.658 325.202 120.706 325.524C120.753 325.846 120.69 326.121 120.58 326.137Z" fill="#455A64"/>
<path d="M34.6204 323.294C34.7303 323.294 34.7381 323.608 34.6204 323.914C34.5026 324.22 34.3613 324.448 34.2514 324.416C34.1415 324.385 34.1337 324.102 34.2514 323.796C34.3692 323.49 34.5183 323.262 34.6204 323.294Z" fill="#455A64"/>
<path d="M36.0798 318.748C36.1818 318.788 36.0798 319.321 35.9071 319.949C35.7344 320.577 35.4596 321.056 35.3497 321.025C35.2398 320.994 35.3497 320.452 35.5224 319.824C35.6951 319.196 35.9699 318.717 36.0798 318.748Z" fill="#455A64"/>
<path d="M37.5474 314.22C37.6573 314.22 37.5474 314.786 37.3747 315.414C37.202 316.042 36.9194 316.52 36.8095 316.481C36.6996 316.442 36.8095 315.916 36.9901 315.288C37.1706 314.66 37.4454 314.181 37.5474 314.22Z" fill="#455A64"/>
<path d="M39.047 309.713C39.1569 309.713 39.047 310.278 38.8665 310.906C38.6859 311.534 38.4033 312.005 38.3012 311.974C38.1992 311.942 38.3012 311.401 38.4818 310.78C38.6623 310.16 38.945 309.65 39.047 309.713Z" fill="#455A64"/>
<path d="M40.5704 305.167C40.6803 305.167 40.5704 305.733 40.382 306.361C40.1936 306.989 39.9109 307.46 39.8089 307.42C39.7068 307.381 39.8089 306.855 39.9973 306.227C40.1857 305.599 40.4605 305.128 40.5704 305.167Z" fill="#455A64"/>
<path d="M42.1085 300.647C42.2184 300.686 42.1085 301.22 41.9201 301.848C41.7317 302.476 41.4412 302.947 41.3392 302.908C41.2371 302.868 41.3392 302.335 41.5276 301.714C41.716 301.094 42.0064 300.615 42.1085 300.647Z" fill="#455A64"/>
<path d="M43.6702 296.139C43.7801 296.179 43.6702 296.713 43.474 297.333C43.2777 297.953 42.9951 298.432 42.8852 298.392C42.7753 298.353 42.8852 297.819 43.0893 297.199C43.2934 296.579 43.5682 296.1 43.6702 296.139Z" fill="#455A64"/>
<path d="M45.2567 291.658C45.3588 291.658 45.2567 292.232 45.0526 292.852C44.8485 293.472 44.5659 293.951 44.4639 293.911C44.3618 293.872 44.4639 293.338 44.668 292.718C44.8721 292.098 45.1468 291.604 45.2567 291.658Z" fill="#455A64"/>
<path d="M46.8498 287.137C46.9597 287.176 46.8498 287.71 46.6457 288.33C46.4416 288.951 46.159 289.429 46.0491 289.39C45.9392 289.351 46.0491 288.817 46.2611 288.197C46.473 287.577 46.7478 287.106 46.8498 287.137Z" fill="#455A64"/>
<path d="M48.468 282.646C48.5779 282.685 48.468 283.219 48.2561 283.839C48.0441 284.459 47.7694 284.93 47.6595 284.891C47.5496 284.852 47.6595 284.318 47.8714 283.698C48.0834 283.078 48.366 282.607 48.468 282.646Z" fill="#455A64"/>
<path d="M50.0995 278.163C50.2094 278.202 50.0995 278.728 49.8797 279.348C49.6599 279.969 49.3851 280.44 49.2831 280.4C49.181 280.361 49.283 279.827 49.495 279.215C49.707 278.603 49.9974 278.124 50.0995 278.163Z" fill="#455A64"/>
<path d="M51.7488 273.68C51.8508 273.68 51.7488 274.253 51.529 274.866C51.3092 275.478 51.0266 275.957 50.9245 275.918C50.8225 275.878 50.9245 275.345 51.1443 274.724C51.3641 274.104 51.6389 273.641 51.7488 273.68Z" fill="#455A64"/>
<path d="M53.4044 269.198C53.5143 269.238 53.4044 269.772 53.1846 270.392C52.9648 271.012 52.6822 271.475 52.5723 271.436C52.4624 271.396 52.5723 270.871 52.7999 270.25C53.0276 269.63 53.3023 269.159 53.4044 269.198Z" fill="#455A64"/>
<path d="M55.0778 264.732C55.1877 264.771 55.0778 265.297 54.8501 265.917C54.6225 266.537 54.3477 267 54.2456 266.961C54.1436 266.922 54.2456 266.388 54.4733 265.776C54.701 265.163 54.9757 264.692 55.0778 264.732Z" fill="#455A64"/>
<path d="M56.7656 260.258C56.8677 260.297 56.7656 260.831 56.538 261.451C56.3103 262.071 56.0277 262.535 55.9178 262.495C55.8079 262.456 55.9178 261.922 56.1533 261.302C56.3888 260.682 56.6557 260.258 56.7656 260.258Z" fill="#455A64"/>
<path d="M58.4597 255.799C58.5617 255.838 58.4597 256.364 58.2242 256.984C57.9887 257.605 57.7139 258.068 57.6119 258.029C57.5098 257.989 57.6119 257.455 57.8395 256.835C58.0672 256.215 58.3498 255.752 58.4597 255.799Z" fill="#455A64"/>
<path d="M60.1631 251.332C60.2652 251.372 60.1631 251.906 59.9276 252.526C59.6921 253.146 59.4174 253.601 59.3075 253.562C59.1976 253.523 59.3075 252.989 59.543 252.377C59.7785 251.764 60.0532 251.293 60.1631 251.332Z" fill="#455A64"/>
<path d="M61.8746 246.912C61.9767 246.951 61.8746 247.485 61.6391 248.105C61.4036 248.725 61.121 249.18 61.0189 249.141C60.9169 249.102 61.0189 248.568 61.2544 247.956C61.4899 247.343 61.7726 246.833 61.8746 246.912Z" fill="#455A64"/>
<path d="M63.5947 242.423C63.6967 242.462 63.5947 242.996 63.3592 243.608C63.1237 244.221 62.8411 244.692 62.7311 244.645C62.6212 244.597 62.7311 244.079 62.9745 243.459C63.2179 242.839 63.4926 242.384 63.5947 242.423Z" fill="#455A64"/>
<path d="M65.3218 237.963C65.4238 238.01 65.3218 238.536 65.0784 239.156C64.8351 239.776 64.5603 240.232 64.4583 240.193C64.3562 240.153 64.4583 239.619 64.7016 239.007C64.945 238.395 65.2354 237.924 65.3218 237.963Z" fill="#455A64"/>
<path d="M67.0493 233.52C67.1592 233.559 67.0493 234.085 66.806 234.706C66.5626 235.326 66.2878 235.781 66.1858 235.742C66.0837 235.703 66.1858 235.169 66.4291 234.556C66.6725 233.944 66.9473 233.473 67.0493 233.52Z" fill="#455A64"/>
<path d="M68.7837 229.069C68.8936 229.108 68.7837 229.642 68.5403 230.254C68.297 230.866 68.0222 231.329 67.9202 231.29C67.8181 231.251 67.9202 230.717 68.1635 230.105C68.4069 229.493 68.6816 229.029 68.7837 229.069Z" fill="#455A64"/>
<path d="M70.5259 224.618C70.628 224.665 70.5259 225.191 70.2825 225.811C70.0392 226.431 69.7566 226.887 69.6545 226.847C69.5525 226.808 69.6545 226.274 69.8979 225.662C70.1413 225.05 70.416 224.579 70.5259 224.618Z" fill="#455A64"/>
<path d="M72.2987 220.174C72.4086 220.221 72.2987 220.747 72.0553 221.359C71.812 221.972 71.5372 222.443 71.4273 222.396C71.3174 222.349 71.4273 221.823 71.6785 221.21C71.9297 220.598 72.1574 220.135 72.2987 220.174Z" fill="#455A64"/>
<path d="M74.0823 215.764C74.1843 215.811 74.0823 216.337 73.8075 216.941C73.5328 217.546 73.258 218.009 73.156 217.962C73.0539 217.915 73.156 217.396 73.4307 216.784C73.7055 216.172 73.9802 215.724 74.0823 215.764Z" fill="#455A64"/>
<path d="M76.1308 211.453C76.2329 211.508 76.0759 212.026 75.7854 212.615C75.495 213.204 75.1731 213.635 75.0711 213.588C74.969 213.541 75.1182 213.023 75.4165 212.434C75.7148 211.846 76.0288 211.398 76.1308 211.453Z" fill="#455A64"/>
<path d="M78.6665 207.419C78.7529 207.489 78.5252 207.976 78.1563 208.518C77.7873 209.059 77.3712 209.436 77.3084 209.381C77.2456 209.326 77.4419 208.832 77.8187 208.282C78.1955 207.733 78.5802 207.348 78.6665 207.419Z" fill="#455A64"/>
<path d="M81.3997 205.205C81.3997 205.315 81.2191 205.472 80.9522 205.613C80.6853 205.754 80.4262 205.833 80.3556 205.746C80.2849 205.66 80.4576 205.417 80.7638 205.252C81.0699 205.087 81.3683 205.095 81.3997 205.205Z" fill="#455A64"/>
<path d="M74.2236 137.952L46.1436 137.167H17.5142C15.6764 137.204 13.9283 137.969 12.6538 139.293C11.3792 140.618 10.6823 142.394 10.716 144.232V163.7C10.6199 177.153 13.8276 190.423 20.0576 202.346C25.3486 212.277 33.5363 222.498 46.1436 228.99C57.7383 224.641 66.3891 213.03 71.6801 203.084C77.9101 191.161 81.1179 177.89 81.0218 164.438V145.009C81.0554 143.172 80.3582 141.396 79.0835 140.073C77.8087 138.75 76.0607 137.987 74.2236 137.952V137.952Z" fill="#3B46E7"/>
<path d="M45.1778 183.397L34.7842 174.801L38.2853 170.562L44.5498 175.743L54.7942 163.991L58.939 167.595L45.1778 183.397Z" fill="white"/>
<g opacity="0.3">
<path opacity="0.3" d="M74.2236 137.952L46.1436 137.167H17.5142C15.6764 137.204 13.9283 137.969 12.6538 139.293C11.3792 140.618 10.6823 142.394 10.716 144.232V163.7C10.6199 177.153 13.8276 190.423 20.0576 202.346C25.3486 212.277 33.5363 222.498 46.1436 228.99C57.7383 224.641 66.3891 213.03 71.6801 203.084C77.9101 191.161 81.1179 177.89 81.0218 164.438V145.009C81.0554 143.172 80.3582 141.396 79.0835 140.073C77.8087 138.75 76.0607 137.987 74.2236 137.952V137.952ZM73.2972 165.867C73.373 176.508 70.8337 187.005 65.9024 196.435C61.7183 204.285 55.5638 212.379 45.5863 217.521C35.6166 212.379 29.6897 204.293 25.5056 196.435C20.5858 187.002 18.0548 176.506 18.1343 165.867V150.504C18.1091 149.052 18.6597 147.649 19.6658 146.601C20.672 145.554 22.0519 144.948 23.5038 144.915H67.9356C69.3889 144.946 70.7708 145.551 71.7787 146.599C72.7865 147.646 73.3382 149.051 73.3129 150.504L73.2972 165.867Z" fill="black"/>
</g>
</svg>
